<?xml version="1.0" standalone="no"?>
<!DOCTYPE svg PUBLIC "-//W3C//DTD SVG 1.1//EN" "http://www.w3.org/Graphics/SVG/1.1/DTD/svg11.dtd" >
<svg xmlns="http://www.w3.org/2000/svg">
<metadata></metadata>
<defs>
<font id="oxfam_tstar_probold" horiz-adv-x="1116" >
<font-face units-per-em="2048" ascent="1585" descent="-463" />
<missing-glyph horiz-adv-x="512" />
<glyph horiz-adv-x="0" />
<glyph horiz-adv-x="682" />
<glyph unicode=" "  horiz-adv-x="512" />
<glyph unicode="&#x09;" horiz-adv-x="512" />
<glyph unicode="&#xa0;" horiz-adv-x="512" />
<glyph unicode="!" horiz-adv-x="557" d="M156 0v246h245v-246h-245zM182 385v1075h195v-1075h-195z" />
<glyph unicode="&#x22;" horiz-adv-x="774" d="M156 1120v422h174v-422h-174zM444 1120v422h174v-422h-174z" />
<glyph unicode="#" horiz-adv-x="1347" d="M156 444v177h202l35 210h-176v175h199l65 372h185l-58 -372h205l66 372h180l-62 -372h195v-175h-221l-35 -210h197v-177h-222l-67 -405h-180l59 405h-205l-69 -405h-183l64 405h-174zM543 621h209l34 210h-206z" />
<glyph unicode="$" horiz-adv-x="1073" d="M96 385h201q0 -98 63.5 -152.5t167.5 -54.5q114 0 182 58.5t68 152.5q0 126 -125 199q-90 53 -334 174q-89 43 -143.5 133t-54.5 199q0 142 87 243t232 127v185h191v-185q148 -28 237.5 -133t89.5 -254h-198q0 94 -64 148.5t-164 54.5q-92 0 -152.5 -51t-60.5 -139 q0 -107 111 -164q34 -17 106 -52.5t121 -60.5t91 -49q112 -60 170.5 -157t58.5 -222q0 -149 -96.5 -257t-249.5 -138v-185h-191v183q-158 24 -251 133.5t-93 263.5z" />
<glyph unicode="%" horiz-adv-x="1730" d="M154 983v199q0 127 77 202.5t205 75.5t205.5 -75t77.5 -203v-199q0 -124 -77.5 -199t-205.5 -75t-205 74.5t-77 199.5zM340 983q0 -92 96 -92q44 0 70 24.5t26 67.5v199q0 40 -21.5 68t-74.5 28q-44 0 -70 -26t-26 -70v-199zM510 -104l543 1652h153l-538 -1652h-158z M1010 274v199q0 127 77 203t205 76t205.5 -75.5t77.5 -203.5v-199q0 -124 -77.5 -199t-205.5 -75t-205 74.5t-77 199.5zM1196 274q0 -92 96 -92q44 0 70.5 24.5t26.5 67.5v199q0 39 -22 67.5t-75 28.5q-44 0 -70 -26t-26 -70v-199z" />
<glyph unicode="&#x26;" horiz-adv-x="1335" d="M135 410q0 120 64 217.5t174 163.5q-3 2 -7.5 5.5t-8.5 6.5l-8 6l-6 4.5t-1 1.5q-78 67 -110.5 135.5t-32.5 155.5q0 78 25 141.5t65.5 104t93 68t105.5 39t106 11.5q184 0 302 -114.5t118 -308.5h-197q0 106 -61.5 167.5t-161.5 61.5q-39 0 -72 -8t-63.5 -26t-48 -54 t-17.5 -86q0 -30 8 -55t27.5 -48.5t33 -36.5t42.5 -38l676 -570l-123 -153l-66 57q-97 -276 -413 -276q-74 0 -148.5 24.5t-142 73t-110 134.5t-42.5 196zM332 408q0 -65 24 -112.5t63 -72t78.5 -36t80.5 -11.5q46 0 86.5 11t77 35t58.5 70t23 109l-307 261q-28 -13 -53 -29 q-131 -84 -131 -225z" />
<glyph unicode="'" horiz-adv-x="485" d="M156 1120v422h174v-422h-174z" />
<glyph unicode="(" horiz-adv-x="632" d="M156 193v1024q0 124 39 192q6 12 14 24l14 21t18.5 22.5t18 20.5t22.5 23.5t22 21.5t26 25.5t26 25.5l119 -139q-57 -63 -75 -85.5t-29 -45.5q-23 -51 -23 -117v-1003q0 -70 23 -121q24 -47 106 -125l-121 -141q-69 65 -104.5 104t-56.5 78q-39 74 -39 195z" />
<glyph unicode=")" horiz-adv-x="636" d="M156 -39q51 44 73 68t37 53q23 48 23 121v1003q0 69 -23 117q-23 44 -93 116q-9 8 -13 13l123 137q53 -52 72 -71t46 -51t41 -58q39 -74 39 -192v-1024q0 -121 -39 -195q-12 -24 -35 -52t-44 -49.5t-80 -80.5z" />
<glyph unicode="*" horiz-adv-x="1202" d="M262 952l172 95l-172 96l86 149l168 -102l-4 201h174l-8 -205l172 106l86 -151l-170 -92l174 -95l-90 -149l-172 104l8 -202h-174l4 200l-168 -102z" />
<glyph unicode="+" horiz-adv-x="1146" d="M143 483v185h336v325h187v-325h338v-185h-338v-348h-187v348h-336z" />
<glyph unicode="," horiz-adv-x="659" d="M53 -211l183 455h231l-215 -455h-199z" />
<glyph unicode="-" horiz-adv-x="940" d="M156 483v185h628v-185h-628z" />
<glyph unicode="." horiz-adv-x="557" d="M147 0v262h263v-262h-263z" />
<glyph unicode="/" horiz-adv-x="1038" d="M156 -102l534 1632h193l-533 -1632h-194z" />
<glyph unicode="0" horiz-adv-x="1052" d="M133 375v710q0 35 7 73t22.5 83.5t45.5 85.5t71.5 73.5t105.5 53t143 19.5q78 0 141.5 -19.5t104.5 -53t71 -73.5t45 -86t21.5 -84t6.5 -74v-710q0 -44 -9 -90.5t-36 -102.5t-69 -98t-115.5 -71t-168.5 -29q-92 0 -163.5 29t-112.5 71.5t-67 98.5t-35 103t-9 91zM330 377 q0 -50 14 -88t34.5 -59t49 -34.5t52 -17.5t48.5 -4t48 4t50.5 17.5t47.5 34.5t33.5 59t13.5 88v704q0 50 -13.5 87.5t-33.5 58t-47.5 33.5t-50.5 16.5t-48 3.5q-33 0 -62.5 -7.5t-62.5 -26.5t-53 -61.5t-20 -103.5v-704z" />
<glyph unicode="1" horiz-adv-x="1060" d="M154 0v195h278v1071l-203 -17v189l400 32v-1275h284v-195h-759z" />
<glyph unicode="2" horiz-adv-x="1042" d="M109 0v305q0 179 186 332q55 44 178.5 118.5t185.5 125.5q37 31 57.5 80.5t20.5 97.5q0 105 -57 163t-160 58q-26 0 -51 -5t-55.5 -20t-53 -40t-38.5 -69t-17 -102h-196q0 49 11 101.5t40.5 112.5t73.5 106.5t118.5 77.5t167.5 31q182 0 298 -115.5t116 -296.5 q0 -93 -38.5 -177.5t-107.5 -144.5q-61 -52 -191.5 -130t-190.5 -126q-51 -42 -76 -85t-25 -103v-100h629v-195h-825z" />
<glyph unicode="3" horiz-adv-x="1048" d="M113 375h196q0 -59 21.5 -101.5t56.5 -62.5t67.5 -28.5t65.5 -8.5q27 0 53 4.5t56.5 18.5t53.5 36t38.5 60t15.5 88v139q0 48 -16.5 85t-39.5 57t-55 32t-57 15.5t-51 3.5h-102v153l256 400h-504v194h735v-176l-260 -399q81 -19 141 -60.5t91 -94.5t45 -104t14 -102v-143 q0 -44 -11.5 -93t-41.5 -104.5t-74.5 -99.5t-118.5 -73t-166 -29q-94 0 -168 26.5t-118 67t-73 95t-39.5 104.5t-10.5 100z" />
<glyph unicode="4" horiz-adv-x="1069" d="M127 397v178l328 885h194l-319 -868h415v524h197v-1116h-197v397h-618z" />
<glyph unicode="5" horiz-adv-x="1044" d="M100 369h197q0 -89 60 -142t163 -53q93 0 159 57.5t66 155.5v131q0 92 -56.5 154.5t-164.5 62.5h-366v168l41 557h673v-194h-491l-25 -340h172q109 0 203 -49t152.5 -143t58.5 -212v-133q0 -175 -124 -291t-298 -116q-175 0 -297.5 109t-122.5 278z" />
<glyph unicode="6" horiz-adv-x="1048" d="M109 367v712q0 42 11.5 90t42.5 102.5t76 97t120 71t167 28.5q91 0 162.5 -31.5t112.5 -78t67.5 -107.5t36 -113t10.5 -102h-192q-1 59 -14.5 103.5t-33.5 70t-47.5 41t-51.5 20.5t-50 5q-28 0 -54 -4t-58 -17t-55 -34t-38.5 -58.5t-15.5 -87.5v-207q103 74 221 74 q92 0 165.5 -28t117.5 -70t73.5 -96.5t40.5 -103t11 -93.5v-182q0 -42 -11 -88.5t-40.5 -101t-74 -97.5t-120 -71.5t-170.5 -28.5q-90 0 -163.5 28t-118 70.5t-74.5 96.5t-41.5 101t-11.5 89zM305 375q0 -48 15.5 -85.5t39 -59t54 -34.5t55.5 -17.5t49 -4.5q25 0 50.5 4 t57 17t55.5 34t40 58.5t16 87.5v174q0 50 -16 88t-40 59t-55.5 34.5t-57 17.5t-50.5 4q-24 0 -49 -4t-56 -17.5t-53.5 -34.5t-38.5 -59t-16 -88v-174z" />
<glyph unicode="7" horiz-adv-x="1044" d="M92 1266v194h860v-164l-467 -1296h-204l460 1266h-649z" />
<glyph unicode="8" horiz-adv-x="1064" d="M96 416q0 86 46 182.5t141 151.5q-79 52 -125.5 141t-46.5 172q0 51 11 102.5t41 108t75.5 99t121.5 70t172 27.5q95 0 170.5 -27.5t121 -70.5t76.5 -99t42.5 -107.5t11.5 -102.5q0 -81 -48.5 -172.5t-133.5 -140.5q54 -28 94.5 -71t61.5 -90t31 -90t10 -83 q0 -52 -11.5 -106t-42 -114.5t-77.5 -106.5t-126.5 -76.5t-179.5 -30.5q-98 0 -176 30.5t-125.5 76.5t-79 106t-43.5 114.5t-12 106.5zM293 416q0 -58 18 -103.5t44 -70.5t60.5 -41.5t62.5 -21.5t54 -5q27 0 54.5 5t62.5 21t61 41t44 70.5t18 104.5q0 109 -68.5 174 t-171.5 65t-171 -65.5t-68 -173.5zM307 1063q0 -101 62.5 -162t162.5 -61t163 61t63 162q0 52 -17 92.5t-41.5 63t-57 36.5t-59 18.5t-51.5 4.5t-51.5 -4.5t-58.5 -18.5t-56.5 -36.5t-41.5 -63t-17 -92.5z" />
<glyph unicode="9" horiz-adv-x="1048" d="M113 905v178q0 42 10.5 89t40 101.5t73.5 97t118.5 71t168.5 28.5q92 0 166 -28t118 -70t74 -95.5t41 -100.5t11 -89v-714q0 -43 -10.5 -90.5t-40 -102.5t-73.5 -98t-119 -71.5t-169 -28.5q-91 0 -162.5 31t-114 78t-70.5 108t-38 114t-10 103h197q0 -72 20 -123.5 t52.5 -75.5t63.5 -33.5t64 -9.5q27 0 52.5 4t56 17.5t52.5 34.5t37 59t15 88v209q-45 -30 -106 -52t-115 -22q-92 0 -165 29t-116.5 72t-72 98.5t-39 103t-10.5 90.5zM309 907q0 -62 23 -105.5t59.5 -63.5t68.5 -28t64 -8q25 0 50 4t55.5 17.5t53.5 35t38.5 60t15.5 88.5 v172q0 50 -15.5 87.5t-38 58t-53.5 33.5t-56 16.5t-50 3.5t-49.5 -3.5t-56 -16.5t-54.5 -33.5t-39 -58t-16 -87.5v-172z" />
<glyph unicode=":" horiz-adv-x="557" d="M147 0v262h263v-262h-263zM147 618v263h263v-263h-263z" />
<glyph unicode=";" horiz-adv-x="587" d="M2 -211l182 455h232l-215 -455h-199zM166 618v263h262v-263h-262z" />
<glyph unicode="&#x3c;" d="M156 539l532 536h268l-532 -536l539 -539h-269z" />
<glyph unicode="=" horiz-adv-x="1216" d="M229 324v184h758v-184h-758zM229 682v184h758v-184h-758z" />
<glyph unicode="&#x3e;" horiz-adv-x="1120" d="M156 0l538 539l-532 536h266l537 -538l-543 -537h-266z" />
<glyph unicode="?" horiz-adv-x="907" d="M43 1040q0 49 11.5 102.5t42 113.5t75.5 106.5t119 77t166 30.5q182 0 294.5 -111.5t112.5 -291.5q0 -71 -25.5 -136.5t-66.5 -111.5q-33 -38 -109.5 -102t-109.5 -99q-43 -46 -43 -137v-96h-199v90q0 152 99 264q29 34 105 94t108 101q43 50 43 131q0 211 -209 211 q-25 0 -48.5 -4t-54 -19t-53 -39.5t-39.5 -69t-20 -104.5h-199zM293 0v246h244v-246h-244z" />
<glyph unicode="@" horiz-adv-x="1320" d="M209 -27v1090q0 43 11 91.5t42.5 106.5t80 103t131.5 75.5t188 30.5q103 0 185 -30.5t130 -76t80 -103.5t43.5 -107t11.5 -92v-1024h-184v51q-16 -20 -53 -35.5t-72 -15.5q-126 0 -206.5 72t-80.5 210v373q0 91 42 157t107 96t144 30q30 0 60.5 -12.5t45.5 -30.5v127 q0 62 -23 108t-61.5 70.5t-80.5 35.5t-88 11q-45 0 -89 -12t-85.5 -37t-67 -71.5t-25.5 -108.5v-1075q0 -60 27 -104.5t70 -66.5t85.5 -32t84.5 -10v-187q-103 1 -185.5 29t-131 70t-80.5 96.5t-44 103t-12 94.5zM700 328q0 -53 29.5 -80t73.5 -27q48 0 80 26.5t32 80.5v362 q0 50 -33 75.5t-77 25.5q-46 0 -75.5 -26.5t-29.5 -80.5v-356z" />
<glyph unicode="A" horiz-adv-x="1140" d="M43 0l381 1460h287l387 -1460h-203l-102 397h-441l-104 -397h-205zM399 594h342l-168 659z" />
<glyph unicode="B" horiz-adv-x="1134" d="M156 0v1460h440q96 0 170 -29t115 -71t66.5 -98.5t33.5 -102t8 -90.5v-25q0 -71 -33 -155t-104 -135q45 -26 78.5 -67.5t49.5 -86.5t23 -83t7 -71v-49q0 -44 -9 -91t-36.5 -104t-70.5 -100t-117.5 -72.5t-170.5 -29.5h-450zM354 197h248q27 0 51.5 4t54.5 17t51.5 34 t36.5 59.5t15 89.5v43q0 63 -18.5 107t-50.5 65t-63 29t-67 8h-258v-456zM354 850h250q36 0 64 7t57 26.5t45 61.5t16 104v18q0 197 -194 197h-238v-414z" />
<glyph unicode="C" horiz-adv-x="1081" d="M135 387v690q0 43 11 91t41 104t75.5 99.5t122.5 72.5t174 29q93 0 168.5 -29t121.5 -73t77 -99.5t43 -104.5t12 -92h-199q0 50 -17 88.5t-41 59.5t-56.5 34t-58 17t-50.5 4q-26 0 -52 -4t-58.5 -17t-57 -34.5t-41 -60t-16.5 -89.5v-686q0 -63 24 -108t62 -65.5t72 -29 t67 -8.5q24 0 50 4.5t58.5 18t56.5 35.5t41 61t17 90h199q0 -44 -11.5 -93t-41.5 -106t-76 -101t-122.5 -73.5t-172.5 -29.5q-94 0 -170 29.5t-121.5 74.5t-76.5 101.5t-42.5 106t-11.5 93.5z" />
<glyph unicode="D" horiz-adv-x="1134" d="M156 0v1460h440q96 0 171 -29.5t117.5 -72.5t69.5 -100t36 -104t9 -91v-662q0 -37 -6.5 -76t-22 -86t-45.5 -88t-71.5 -76t-106 -55t-143.5 -20h-448zM354 197h246q34 0 64.5 8t63.5 28t53 63.5t20 106.5v654q0 51 -14.5 90t-35.5 60.5t-50.5 35t-54 17.5t-50.5 4h-242 v-1067z" />
<glyph unicode="E" horiz-adv-x="1060" d="M156 0v1460h811v-196h-613v-398h568v-196h-568v-473h613v-197h-811z" />
<glyph unicode="F" horiz-adv-x="1040" d="M156 0v1460h811v-196h-613v-398h568v-196h-568v-670h-198z" />
<glyph unicode="G" d="M135 387v690q0 43 11 91t41 104t75.5 99.5t122.5 72.5t174 29q93 0 168.5 -28t121.5 -70.5t77 -97.5t43 -105.5t12 -96.5h-201q0 50 -16.5 88t-40.5 59t-56 34.5t-57.5 17.5t-50.5 4q-34 0 -67.5 -8t-71.5 -28t-62 -63.5t-24 -105.5v-686q0 -63 24 -107.5t62 -65.5 t72 -29.5t67 -8.5q24 0 50 4.5t58 18.5t56.5 36.5t41.5 61.5t17 90v242h-252v196h451v-440q0 -44 -12 -93.5t-43 -105.5t-77 -100.5t-122.5 -74t-171.5 -29.5q-94 0 -170 29.5t-121 74.5t-75.5 101.5t-42 106t-11.5 93.5z" />
<glyph unicode="H" horiz-adv-x="1183" d="M156 0v1460h198v-596h475v596h199v-1460h-199v668h-475v-668h-198z" />
<glyph unicode="I" horiz-adv-x="512" d="M156 0v1460h198v-1460h-198z" />
<glyph unicode="J" horiz-adv-x="944" d="M33 383h198q0 -49 12 -87t31 -60t45 -36t49.5 -19t49.5 -5q34 0 63 8.5t57.5 28.5t45 60.5t16.5 97.5v893h-420v196h619v-1077q0 -190 -100.5 -295.5t-282.5 -105.5q-179 0 -281 110t-102 291z" />
<glyph unicode="K" horiz-adv-x="1093" d="M156 0v1460h198v-618l441 618h231l-461 -657l486 -803h-228l-374 629l-95 -142v-487h-198z" />
<glyph unicode="L" horiz-adv-x="987" d="M156 0v1460h198v-1263h611v-197h-809z" />
<glyph unicode="M" horiz-adv-x="1359" d="M156 0v1460h229l295 -710l291 710h233v-1460h-198v1026l-246 -592h-160l-246 594v-1028h-198z" />
<glyph unicode="N" horiz-adv-x="1165" d="M156 0v1460h219l436 -1030v1030h199v-1460h-224l-432 1014v-1014h-198z" />
<glyph unicode="O" d="M135 387v690q0 43 11 91t41 104t75.5 99.5t122.5 72.5t174 29q93 0 168.5 -29t121.5 -73t77 -99.5t43 -104.5t12 -92v-690q0 -44 -11.5 -93t-41.5 -106t-76 -101t-122.5 -73.5t-172.5 -29.5q-94 0 -170 29.5t-121.5 74.5t-76.5 101.5t-42.5 106t-11.5 93.5zM334 387 q0 -63 24 -108t62 -65.5t72 -29t67 -8.5q25 0 50.5 4.5t58 18.5t56.5 36t41 61.5t17 90.5v686q0 51 -17 89.5t-41 60t-56.5 34.5t-58 17t-50.5 4q-26 0 -52 -4t-58.5 -17t-57 -34.5t-41 -60t-16.5 -89.5v-686z" />
<glyph unicode="P" horiz-adv-x="1083" d="M156 0v1460h440q70 0 128.5 -15.5t99.5 -41t72.5 -60.5t50.5 -71t31 -76t16.5 -72.5t4.5 -62.5v-103q0 -46 -9 -93.5t-35.5 -104.5t-68.5 -100.5t-115 -73t-167 -29.5h-250v-557h-198zM354 754h242q26 0 50.5 4t54 17.5t50.5 35t35.5 60.5t14.5 90v96q0 51 -15 89.5 t-36.5 60.5t-51.5 35.5t-55 17.5t-51 4h-238v-510z" />
<glyph unicode="Q" d="M135 387v688q0 43 11 91t41 103.5t75.5 99t122.5 72.5t174 29q93 0 168.5 -29t121.5 -73t77 -99t43 -104t12 -92v-688q0 -40 -9 -84t-33.5 -95t-60.5 -93.5t-96 -76.5t-135 -46v-203h-184v203q-73 13 -131.5 47t-94 77t-59.5 94t-33.5 95.5t-9.5 83.5zM334 387 q0 -81 36.5 -129t92.5 -68v263h184v-265q135 46 135 199v684q0 51 -17 89.5t-41 60t-56.5 34.5t-58 17t-50.5 4q-26 0 -52 -4t-58.5 -17t-57 -34.5t-41 -60t-16.5 -89.5v-684z" />
<glyph unicode="R" horiz-adv-x="1148" d="M156 0v1460h440q97 0 172.5 -29.5t118.5 -72.5t70.5 -100t37 -104t9.5 -91v-68q0 -45 -11 -94.5t-36.5 -105.5t-77 -104t-121.5 -73l293 -618h-226l-278 596h-193v-596h-198zM354 793h242q27 0 51.5 4t54.5 17t51.5 34t36.5 59.5t15 89.5v60q0 51 -15 89.5t-37.5 60.5 t-53 35.5t-56 17.5t-51.5 4h-238v-471z" />
<glyph unicode="S" horiz-adv-x="1073" d="M96 385h199q0 -98 64.5 -153.5t168.5 -55.5q114 0 182 59.5t68 153.5q0 123 -127 197q-70 42 -332 174q-89 45 -143.5 135t-54.5 199q0 166 115 272.5t296 106.5q188 0 307 -111.5t119 -284.5h-200q0 94 -63 147.5t-163 53.5q-93 0 -153 -50t-60 -138q0 -106 113 -164 q247 -124 316 -162q229 -125 229 -379q0 -174 -128.5 -288.5t-318.5 -114.5q-195 0 -314.5 114t-119.5 289z" />
<glyph unicode="T" horiz-adv-x="978" d="M45 1264v196h889v-196h-346v-1264h-199v1264h-344z" />
<glyph unicode="U" d="M135 387v1073h199v-1073q0 -51 17 -90.5t41.5 -61.5t56.5 -36t58.5 -18.5t51.5 -4.5q33 0 66.5 8.5t71 29t61.5 65.5t24 108v1073h199v-1075q0 -47 -10.5 -96.5t-40.5 -106t-75 -99.5t-122 -72t-174 -29t-174 29t-122.5 72.5t-75.5 100.5t-41 106.5t-11 96.5z" />
<glyph unicode="V" horiz-adv-x="1105" d="M45 1460h203l303 -1261l309 1261h201l-363 -1460h-286z" />
<glyph unicode="W" horiz-adv-x="1619" d="M45 1460h201l217 -1104l264 1104h166l260 -1100l219 1100h203l-305 -1460h-203l-256 1047l-262 -1047h-201z" />
<glyph unicode="X" horiz-adv-x="1071" d="M45 0l377 731l-375 729h225l260 -526l269 526h221l-377 -725l381 -735h-229l-262 526l-261 -526h-229z" />
<glyph unicode="Y" horiz-adv-x="1056" d="M45 1460h217l266 -669l269 669h215l-385 -932v-528h-199v532z" />
<glyph unicode="Z" horiz-adv-x="942" d="M53 0v170l576 1094h-547v196h776v-166l-573 -1099h604v-195h-836z" />
<glyph unicode="[" horiz-adv-x="661" d="M156 -158v1696h350v-182h-166v-1331h166v-183h-350z" />
<glyph unicode="\" horiz-adv-x="1036" d="M156 1524h192l533 -1630h-191z" />
<glyph unicode="]" horiz-adv-x="661" d="M156 25h166v1331h-166v182h350v-1696h-350v183z" />
<glyph unicode="^" horiz-adv-x="1071" d="M156 897l303 563h162l294 -563h-208l-170 313l-166 -313h-215z" />
<glyph unicode="_" horiz-adv-x="1048" d="M-16 -133h1081v-174h-1081v174z" />
<glyph unicode="`" horiz-adv-x="718" d="M162 1561h223l170 -347h-188z" />
<glyph unicode="a" horiz-adv-x="1062" d="M104 336q0 151 104.5 231t276.5 80h236v82q0 170 -193 170q-172 0 -192 -145h-195q7 73 34 132t65.5 96.5t88.5 62.5t98.5 35t98.5 10q74 0 140 -19t123.5 -59t91.5 -111t34 -166v-735h-194v82q-34 -46 -104 -73t-146 -27q-67 0 -130.5 21.5t-117 63t-86.5 111.5t-33 158 zM299 338q0 -87 56 -127.5t141 -40.5q87 0 156 59.5t69 149.5v94h-234q-90 0 -139 -36.5t-49 -98.5z" />
<glyph unicode="b" horiz-adv-x="1089" d="M156 0v1460h194v-459q32 39 91 64t116 25q183 0 290 -105.5t107 -286.5v-323q0 -179 -108.5 -287t-288.5 -108q-55 0 -116 26t-91 64v-70h-194zM350 375q0 -39 8.5 -71.5t30 -64.5t64.5 -50.5t104 -18.5q96 0 149.5 55t53.5 150v323q0 38 -8.5 70t-29.5 63.5t-63 49.5 t-102 18q-98 0 -152.5 -53t-54.5 -148v-323z" />
<glyph unicode="c" horiz-adv-x="1042" d="M135 375v323q0 178 112.5 285t295.5 107q167 0 275 -99t128 -272h-198q-14 78 -63 129t-142 51q-100 0 -156.5 -53t-56.5 -148v-323q0 -38 10 -71.5t32.5 -65t66 -50t104.5 -18.5q83 0 135.5 48.5t66.5 133.5h201q-22 -173 -129.5 -272.5t-273.5 -99.5q-185 0 -296.5 107 t-111.5 288z" />
<glyph unicode="d" horiz-adv-x="1095" d="M135 375v323q0 181 109 286.5t293 105.5q62 0 120 -26.5t86 -62.5v459h195v-1460h-195v66q-26 -33 -86.5 -59.5t-119.5 -26.5q-180 0 -291 108.5t-111 286.5zM330 375q0 -94 55.5 -149.5t151.5 -55.5q61 0 103.5 18.5t63.5 50.5t30 64.5t9 71.5v323q0 95 -54.5 148 t-151.5 53q-60 0 -102.5 -18t-64.5 -49t-31 -64t-9 -70v-323z" />
<glyph unicode="e" horiz-adv-x="1075" d="M135 375v323q0 178 112.5 285t295.5 107q184 0 295.5 -106t111.5 -286v-231h-620v-92q0 -38 10 -71.5t32.5 -65t66 -50t104.5 -18.5q83 0 137 48.5t68 133.5h198q-22 -173 -129.5 -272.5t-273.5 -99.5q-185 0 -296.5 107t-111.5 288zM330 655h426v43q0 37 -10 70t-33 64 t-66.5 49t-103.5 18q-100 0 -156.5 -53t-56.5 -148v-43z" />
<glyph unicode="f" horiz-adv-x="681" d="M35 885v190h176v70q0 149 75 232t224 83h117v-190h-133q-35 0 -61.5 -24t-26.5 -77v-94h241v-190h-241v-885h-195v885h-176z" />
<glyph unicode="g" horiz-adv-x="1091" d="M135 375v323q0 178 110 285t292 107q59 0 116.5 -24.5t85.5 -57.5v67h195v-1155q0 -87 -22 -154.5t-59 -110t-89 -69.5t-107.5 -38t-119.5 -11q-142 0 -245 79t-132 216h202q19 -54 66.5 -87.5t108.5 -33.5q202 0 202 209v146q-30 -35 -86 -60.5t-116 -25.5 q-185 0 -293.5 107t-108.5 288zM330 375q0 -38 9 -71.5t30.5 -65t64 -50t103.5 -18.5q95 0 148.5 55.5t53.5 149.5v323q0 38 -8.5 70t-29 63.5t-62.5 49.5t-102 18q-97 0 -152 -53t-55 -148v-323z" />
<glyph unicode="h" horiz-adv-x="1103" d="M156 0v1460h194v-446q42 37 103.5 56.5t121.5 19.5q186 0 283.5 -103t97.5 -289v-698h-194v698q0 31 -3 56t-14.5 53.5t-31 47.5t-55 31.5t-83.5 12.5q-94 0 -159.5 -55.5t-65.5 -141.5v-702h-194z" />
<glyph unicode="i" horiz-adv-x="538" d="M160 1217v249h219v-249h-219zM172 0v1075h195v-1075h-195z" />
<glyph unicode="j" horiz-adv-x="514" d="M-8 -272h71q84 0 84 90v1257h195v-1247q0 -148 -74.5 -219.5t-193.5 -71.5h-82v191zM135 1217v249h219v-249h-219z" />
<glyph unicode="k" horiz-adv-x="1067" d="M156 0v1460h194v-842l416 457h256l-420 -457l404 -618h-230l-301 475l-125 -135v-340h-194z" />
<glyph unicode="l" horiz-adv-x="532" d="M147 289v1171h195v-1179q0 -48 23.5 -69.5t60.5 -21.5h72v-190h-82q-119 0 -194 71t-75 218z" />
<glyph unicode="m" horiz-adv-x="1511" d="M156 0v1075h194v-59q35 34 92.5 54t110.5 20q144 0 223 -111q101 111 279 111q81 0 143.5 -29.5t97 -77.5t51.5 -102t17 -111v-770h-195v756q0 63 -29 103t-93 40q-191 0 -191 -223v-676h-192v750q0 63 -30.5 106t-90.5 43q-193 0 -193 -225v-674h-194z" />
<glyph unicode="n" horiz-adv-x="1103" d="M156 0v1075h194v-61q44 36 106 56t119 20q185 0 283 -103.5t98 -288.5v-698h-194v698q0 31 -3 56t-14.5 53.5t-31 47.5t-55 31.5t-83.5 12.5q-94 0 -159.5 -55.5t-65.5 -141.5v-702h-194z" />
<glyph unicode="o" horiz-adv-x="1085" d="M135 375v323q0 178 112.5 285t295.5 107q184 0 295.5 -106t111.5 -286v-323q0 -178 -113 -286.5t-294 -108.5q-185 0 -296.5 107t-111.5 288zM330 375q0 -38 10 -71.5t32.5 -65t66 -50t104.5 -18.5q98 0 155.5 55.5t57.5 149.5v323q0 37 -10 70t-33 64t-66.5 49 t-103.5 18q-100 0 -156.5 -53t-56.5 -148v-323z" />
<glyph unicode="p" horiz-adv-x="1091" d="M156 -463v1538h194v-69q34 37 89 60.5t118 23.5q182 0 290.5 -107t108.5 -285v-323q0 -182 -107.5 -288.5t-291.5 -106.5q-58 0 -117.5 27t-89.5 61v-531h-194zM350 375q0 -94 55.5 -149.5t151.5 -55.5q61 0 103.5 18.5t63.5 50.5t29.5 64.5t8.5 71.5v323q0 95 -54 148 t-151 53q-61 0 -103.5 -18t-64 -49.5t-30.5 -63.5t-9 -70v-323z" />
<glyph unicode="q" horiz-adv-x="1091" d="M135 375v323q0 178 110 285t292 107q53 0 108 -18t94 -48v51h195v-1538h-195v526q-25 -32 -79 -57.5t-123 -25.5q-185 0 -293.5 107t-108.5 288zM330 375q0 -38 9 -71.5t30.5 -65t64 -50t103.5 -18.5q95 0 148.5 55.5t53.5 149.5v323q0 38 -8.5 70t-29 63.5t-62.5 49.5 t-102 18q-97 0 -152 -53t-55 -148v-323z" />
<glyph unicode="r" horiz-adv-x="671" d="M156 0v1075h194v-96q48 96 185 96h81v-190h-108q-60 0 -109 -52.5t-49 -156.5v-676h-194z" />
<glyph unicode="s" horiz-adv-x="1001" d="M94 352h197q9 -87 64 -133.5t145 -46.5q88 0 152.5 36t64.5 109q0 79 -109 111q-39 13 -80.5 24.5t-96 25t-79.5 20.5q-107 28 -174 98.5t-67 175.5q0 79 31 141t85 99t122 56t145 19q166 0 275 -90.5t124 -253.5h-201q-12 75 -63 115.5t-140 40.5q-77 0 -131.5 -29.5 t-54.5 -93.5q0 -38 25.5 -59.5t74.5 -34.5q17 -5 120 -32t153 -44q102 -34 167.5 -104t65.5 -172q0 -91 -33 -159.5t-91.5 -108.5t-130 -59t-156.5 -19q-173 0 -284 98.5t-120 269.5z" />
<glyph unicode="t" horiz-adv-x="737" d="M35 885v190h194v385h195v-385h223v-190h-223v-604q0 -48 23.5 -69.5t60.5 -21.5h143v-190h-151q-122 0 -196.5 71t-74.5 218v596h-194z" />
<glyph unicode="u" horiz-adv-x="1110" d="M147 375v700h195v-700q0 -38 9 -71t30.5 -64.5t64 -49.5t103.5 -18q93 0 151 53t58 140v710h194v-1075h-194v70q-32 -35 -90.5 -61.5t-118.5 -26.5q-184 0 -293 106.5t-109 286.5z" />
<glyph unicode="v" horiz-adv-x="942" d="M35 1075h205l231 -842l234 842h202l-303 -1075h-266z" />
<glyph unicode="w" horiz-adv-x="1413" d="M76 1075h200l164 -741l183 741h168l182 -741l164 741h200l-252 -1075h-202l-176 713l-177 -713h-200z" />
<glyph unicode="x" horiz-adv-x="983" d="M35 0l344 537l-344 538h225l232 -370l229 370h221l-342 -540l348 -535h-229l-225 365l-234 -365h-225z" />
<glyph unicode="y" horiz-adv-x="929" d="M35 1075h205l231 -846l219 846h205l-338 -1274q-22 -85 -53.5 -139t-76.5 -80.5t-92.5 -35.5t-119.5 -9h-92v191h117q49 0 78 20t42 70l50 182h-74z" />
<glyph unicode="z" horiz-adv-x="915" d="M76 0v164l485 721h-469v190h707v-164l-486 -721h527v-190h-764z" />
<glyph unicode="{" horiz-adv-x="659" d="M156 125v1157q0 128 66 193t192 65h90v-182h-82q-47 0 -64.5 -23.5t-17.5 -68.5v-1125q0 -45 17.5 -68.5t64.5 -23.5h82v-182h-90q-126 0 -192 65t-66 193z" />
<glyph unicode="|" horiz-adv-x="495" d="M156 -106v1634h184v-1634h-184z" />
<glyph unicode="}" horiz-adv-x="665" d="M156 47h86q49 0 66.5 22.5t17.5 69.5v1125q0 47 -17.5 69.5t-66.5 22.5h-86v182h94q135 0 197.5 -60.5t62.5 -195.5v-1161q0 -135 -62.5 -195.5t-197.5 -60.5h-94v182z" />
<glyph unicode="~" horiz-adv-x="1136" d="M156 532q94 94 148.5 125t117.5 31q52 0 145 -45t146 -45q24 0 49 16t80 70l139 -109q-99 -93 -153.5 -123t-118.5 -30q-52 0 -145 44t-146 44q-27 0 -52 -16t-79 -70z" />
<glyph unicode="&#xa1;" horiz-adv-x="557" d="M156 860v246h245v-246h-245zM180 -354v1075h195v-1075h-195z" />
<glyph unicode="&#xa2;" horiz-adv-x="1042" d="M135 375v323q0 152 86 254t230 129v273h184v-273q130 -26 212 -120.5t99 -241.5h-198q-14 78 -63 129t-142 51q-100 0 -156.5 -53t-56.5 -148v-323q0 -38 10 -71.5t32.5 -65t66 -50t104.5 -18.5q83 0 135.5 48.5t66.5 133.5h201q-19 -148 -101 -243.5t-210 -120.5v-269 h-184v269q-147 25 -231.5 127.5t-84.5 259.5z" />
<glyph unicode="&#xa3;" horiz-adv-x="1044" d="M96 659v193h72v231q0 170 106 277.5t279 107.5t284 -108t111 -277h-194q0 47 -14 83.5t-34.5 56.5t-49 32.5t-53 16.5t-50.5 4q-34 0 -64 -8t-59.5 -27.5t-47 -59.5t-17.5 -96v-233h387v-193h-387v-464h581v-195h-778v659h-72z" />
<glyph unicode="&#xa5;" horiz-adv-x="1105" d="M76 1460h207l268 -676l272 676h207l-321 -782h215v-180h-273v-111h273v-180h-273v-207h-194v207h-275v180h275v111h-275v180h211z" />
<glyph unicode="&#xa6;" horiz-adv-x="495" d="M152 -53v669h194v-669h-194zM152 805v668h194v-668h-194z" />
<glyph unicode="&#xa7;" horiz-adv-x="1134" d="M156 336h194q0 -86 54 -123t155 -37q211 0 211 152q0 37 -23.5 64t-58.5 36q-162 42 -297 66q-96 18 -158.5 93t-62.5 181q0 112 59 186q-47 71 -47 152q0 84 31 147.5t85.5 101.5t121.5 56.5t145 18.5q179 0 288.5 -93.5t109.5 -259.5h-191q0 75 -53.5 117.5 t-157.5 42.5q-50 0 -90.5 -10.5t-71 -41t-30.5 -79.5q0 -31 23.5 -56t60.5 -34q36 -9 286 -62q107 -24 173.5 -99.5t66.5 -186.5q0 -106 -57 -189q43 -54 43 -151q0 -91 -32.5 -159.5t-90 -107.5t-128 -58t-155.5 -19q-181 0 -292 94t-111 258zM356 768q0 -33 22.5 -57 t61.5 -33l289 -64q23 -4 47 -16q15 30 15 70q0 37 -26 62.5t-65 37.5q-19 4 -51 11.5t-104 23.5t-168 37q-21 -34 -21 -72z" />
<glyph unicode="&#xa8;" horiz-adv-x="940" d="M154 1245v244h211v-244h-211zM575 1245v244h211v-244h-211z" />
<glyph unicode="&#xa9;" horiz-adv-x="1738" d="M150 713q0 196 96 363t262 264.5t362 97.5t362 -97.5t262.5 -264.5t96.5 -363t-96.5 -363t-262.5 -264.5t-362 -97.5t-362 97.5t-262 264.5t-96 363zM330 713q0 -151 69.5 -277.5t193 -201t273.5 -74.5q112 0 213.5 44t174 118t115 176t42.5 215t-42.5 215t-115 176 t-174 118t-213.5 44q-150 0 -273.5 -74.5t-193 -201t-69.5 -277.5zM608 522v363q0 27 5.5 56t22.5 64t43 61.5t72 45t105 18.5q60 0 106 -18.5t72.5 -45.5t43.5 -62.5t22.5 -64.5t5.5 -56h-178q0 71 -72 71q-28 0 -50 -15.5t-22 -57.5v-357q0 -42 22.5 -58.5t49.5 -16.5 q72 0 72 73h178q0 -28 -5.5 -57t-23 -65t-44 -63.5t-73.5 -46t-108 -18.5q-58 0 -103.5 18.5t-71 46t-42 63.5t-22 65t-5.5 57z" />
<glyph unicode="&#xaa;" horiz-adv-x="845" d="M147 928q0 103 67 159t175 56h164v41q0 57 -32 82.5t-83 25.5q-45 0 -78.5 -27t-40.5 -81h-147q8 83 53 141.5t99.5 82.5t111.5 24q50 0 95 -13.5t83.5 -41t61 -76t22.5 -113.5v-492h-145v49q-25 -28 -67 -44.5t-87 -16.5q-109 0 -180.5 60.5t-71.5 183.5zM291 928 q0 -105 121 -105q55 0 98 35t43 90v58h-162q-100 0 -100 -78z" />
<glyph unicode="&#xab;" horiz-adv-x="1009" d="M53 539l445 446v-256l-189 -190l189 -189v-256zM432 539l442 446v-258l-186 -188l186 -187v-256z" />
<glyph unicode="&#xac;" horiz-adv-x="1146" d="M147 649v191h852v-510h-196v319h-656z" />
<glyph unicode="&#xad;" horiz-adv-x="1185" d="M156 483v185h874v-185h-874z" />
<glyph unicode="&#xae;" horiz-adv-x="1738" d="M150 713q0 196 96 363t262 264.5t362 97.5t362 -97.5t262.5 -264.5t96.5 -363t-96.5 -363t-262.5 -264.5t-362 -97.5t-362 97.5t-262 264.5t-96 363zM330 713q0 -151 69.5 -277.5t193 -201t273.5 -74.5q112 0 213.5 44t174 118t115 176t42.5 215t-42.5 215t-115 176 t-174 118t-213.5 44q-150 0 -273.5 -74.5t-193 -201t-69.5 -277.5zM633 276v836h266q60 0 106 -18t72 -45t42.5 -62t22 -63.5t5.5 -55.5v-45q0 -27 -6 -56t-21 -63t-45.5 -63.5t-73.5 -46.5l160 -318h-196l-152 302h-6v-302h-174zM807 750h94q28 0 50 15.5t22 57.5v41 q0 41 -22.5 57.5t-51.5 16.5h-92v-188z" />
<glyph unicode="&#xaf;" horiz-adv-x="954" d="M164 1272v166h624v-166h-624z" />
<glyph unicode="&#xb0;" horiz-adv-x="684" d="M86 1206q0 106 75 181t179 75q107 0 182.5 -74.5t75.5 -181.5q0 -105 -75.5 -180.5t-182.5 -75.5q-104 0 -179 76t-75 180zM221 1206q0 -47 35.5 -81.5t83.5 -34.5q49 0 85 34.5t36 81.5q0 49 -35.5 84t-85.5 35q-48 0 -83.5 -35t-35.5 -84z" />
<glyph unicode="&#xb1;" horiz-adv-x="1153" d="M147 0v184h859v-184h-859zM147 485v185h336v303h187v-303h336v-185h-336v-233h-187v233h-336z" />
<glyph unicode="&#xb2;" horiz-adv-x="757" d="M147 696v168q0 106 103 185q7 5 72.5 43.5t104 73t38.5 67.5q0 40 -22.5 62t-63.5 22q-36 0 -60 -32.5t-24 -90.5h-148q0 118 66 193t166 75q104 0 167.5 -62.5t63.5 -164.5q0 -104 -78 -172q-47 -38 -102 -66q-41 -24 -65 -39.5t-48 -44t-24 -55.5v-14h315v-148h-461z " />
<glyph unicode="&#xb3;" horiz-adv-x="753" d="M147 954h146q0 -67 26.5 -93.5t57.5 -26.5q13 0 25.5 2.5t27 10t23 24t8.5 40.5v45q0 43 -27 59.5t-57 16.5h-78v107l109 168h-232v145h418v-123l-115 -170q67 -27 97 -83t30 -118v-47q0 -32 -11 -67.5t-35 -72.5t-71 -61t-110 -24q-65 0 -113 27t-72.5 69.5t-35.5 85.5 t-11 86z" />
<glyph unicode="&#xb4;" horiz-adv-x="716" d="M162 1214l170 347h223l-205 -347h-188z" />
<glyph unicode="&#xb5;" d="M156 -463v1538h194v-700q0 -37 10.5 -71t33.5 -64.5t65.5 -49t99.5 -18.5q88 0 147.5 53.5t59.5 139.5v710h195v-1075h-195v70q-76 -88 -207 -88q-65 0 -121.5 24t-87.5 53v-522h-194z" />
<glyph unicode="&#xb6;" horiz-adv-x="1097" d="M0 1079q0 177 98.5 265t282.5 88h512v-1432h-199v1233h-157v-1233h-199v748q-155 9 -246.5 102.5t-91.5 228.5z" />
<glyph unicode="&#xb7;" horiz-adv-x="565" d="M156 416v256h254v-256h-254z" />
<glyph unicode="&#xb8;" horiz-adv-x="667" d="M137 -434l203 346h188l-174 -346h-217z" />
<glyph unicode="&#xb9;" horiz-adv-x="722" d="M147 696v146h138v463l-101 -11v146l246 20v-618h145v-146h-428z" />
<glyph unicode="&#xba;" horiz-adv-x="849" d="M147 948v213q0 122 76.5 195.5t200.5 73.5q127 0 202.5 -72.5t75.5 -196.5v-213q0 -123 -76 -195.5t-202 -72.5q-127 0 -202 71.5t-75 196.5zM295 948q0 -125 129 -125q60 0 95.5 33.5t35.5 91.5v213q0 52 -29.5 88.5t-101.5 36.5q-62 0 -95.5 -32.5t-33.5 -92.5v-213z " />
<glyph unicode="&#xbb;" horiz-adv-x="1009" d="M135 98v254l191 189l-191 188v258l443 -446zM514 98v254l188 189l-188 188v258l442 -446z" />
<glyph unicode="&#xbc;" horiz-adv-x="1458" d="M147 696v146h142v463l-105 -11v146l250 20v-618h141v-146h-428zM393 -104l543 1652h154l-541 -1652h-156zM866 193v114l168 453h146l-154 -422h139v256h146v-594h-146v193h-299z" />
<glyph unicode="&#xbd;" horiz-adv-x="1521" d="M147 696v146h140v463l-103 -9v144l248 20v-618h143v-146h-428zM391 -104l543 1652h153l-538 -1652h-158zM911 0v168q0 105 103 184q12 9 54 34t74 45.5t59.5 50t27.5 55.5q0 40 -22.5 62t-63.5 22q-36 0 -60 -32.5t-24 -90.5h-148q0 118 66 193t166 75q104 0 167.5 -62.5 t63.5 -164.5q0 -104 -78 -172q-47 -38 -102 -66q-41 -24 -65 -39.5t-48 -44t-24 -55.5v-15h315v-147h-461z" />
<glyph unicode="&#xbe;" horiz-adv-x="1478" d="M147 954h146q0 -67 26.5 -93.5t57.5 -26.5q13 0 25.5 2.5t27 10t23 24t8.5 40.5v45q0 43 -27 59.5t-57 16.5h-78v107l109 168h-230v145h416v-123l-115 -170q67 -27 98 -83.5t31 -117.5v-47q0 -32 -11.5 -67.5t-35.5 -72.5t-71.5 -61t-110.5 -24q-65 0 -113 27t-72.5 69.5 t-35.5 85.5t-11 86zM412 -104l544 1652h152l-539 -1652h-157zM885 193v114l168 453h147l-153 -422h139v256h145v-594h-145v193h-301z" />
<glyph unicode="&#xbf;" horiz-adv-x="866" d="M43 20q0 71 25.5 136.5t66.5 111.5q33 38 109.5 102t109.5 99q43 46 43 137v96h195v-90q0 -158 -94 -264q-29 -34 -107 -94.5t-110 -101.5q-43 -53 -43 -129q0 -105 55 -160.5t158 -55.5q26 0 51 4.5t55.5 20t53.5 40.5t39.5 70t19.5 105h194q0 -49 -11.5 -102.5 t-41.5 -113.5t-75 -106.5t-119 -77t-166 -30.5q-182 0 -295 111.5t-113 291.5zM369 842v245h243v-245h-243z" />
<glyph unicode="&#xc0;" horiz-adv-x="1140" d="M43 0l381 1460h287l387 -1460h-203l-102 397h-441l-104 -397h-205zM291 1944h223l170 -347h-188zM399 594h342l-168 659z" />
<glyph unicode="&#xc1;" horiz-adv-x="1140" d="M43 0l381 1460h287l387 -1460h-203l-102 397h-441l-104 -397h-205zM399 594h342l-168 659zM434 1597l170 347h223l-204 -347h-189z" />
<glyph unicode="&#xc2;" horiz-adv-x="1140" d="M43 0l381 1460h287l387 -1460h-203l-102 397h-441l-104 -397h-205zM266 1597l223 330h160l225 -330h-182l-123 162l-123 -162h-180zM399 594h342l-168 659z" />
<glyph unicode="&#xc3;" horiz-adv-x="1140" d="M43 0l381 1460h287l387 -1460h-203l-102 397h-441l-104 -397h-205zM229 1724q76 76 129 101.5t99 25.5q45 0 125.5 -39.5t105.5 -39.5q40 0 105 65l116 -115q-77 -74 -128 -99.5t-95 -25.5q-46 0 -128.5 41t-106.5 41q-18 0 -39 -12t-66 -55zM399 594h342l-168 659z" />
<glyph unicode="&#xc4;" horiz-adv-x="1140" d="M43 0l381 1460h287l387 -1460h-203l-102 397h-441l-104 -397h-205zM254 1597v244h211v-244h-211zM399 594h342l-168 659zM676 1597v244h211v-244h-211z" />
<glyph unicode="&#xc5;" horiz-adv-x="1140" d="M43 0l381 1460h287l387 -1460h-203l-102 397h-441l-104 -397h-205zM338 1741q0 95 68 163t163 68t163.5 -68t68.5 -163t-68.5 -163.5t-163.5 -68.5t-163 68.5t-68 163.5zM399 594h342l-168 659zM471 1741q0 -40 29 -69.5t69 -29.5t69.5 29.5t29.5 69.5t-29.5 69t-69.5 29 t-69 -29t-29 -69z" />
<glyph unicode="&#xc6;" horiz-adv-x="1607" d="M43 0l381 1460h1089v-196h-612v-398h563v-196h-563v-473h612v-197h-811v397h-352q-12 -45 -49 -184.5t-55 -212.5h-203zM399 594h303v670h-127z" />
<glyph unicode="&#xc7;" horiz-adv-x="1081" d="M135 387v690q0 43 11 91t41 104t75.5 99.5t122.5 72.5t174 29q93 0 168.5 -29t121.5 -73t77 -99.5t43 -104.5t12 -92h-199q0 50 -17 88.5t-41 59.5t-56.5 34t-58 17t-50.5 4q-26 0 -52 -4t-58.5 -17t-57 -34.5t-41 -60t-16.5 -89.5v-686q0 -63 24 -108t62 -65.5t72 -29 t67 -8.5q24 0 50 4.5t58.5 18t56.5 35.5t41 61t17 90h199q0 -44 -11.5 -93t-41.5 -106t-76 -101t-122.5 -73.5t-172.5 -29.5q-94 0 -170 29.5t-121.5 74.5t-76.5 101.5t-42.5 106t-11.5 93.5zM262 -434l203 346h188l-174 -346h-217z" />
<glyph unicode="&#xc8;" horiz-adv-x="1060" d="M156 0v1460h811v-196h-613v-398h568v-196h-568v-473h613v-197h-811zM313 1944h224l170 -347h-189z" />
<glyph unicode="&#xc9;" horiz-adv-x="1060" d="M156 0v1460h811v-196h-613v-398h568v-196h-568v-473h613v-197h-811zM416 1597l170 347h223l-205 -347h-188z" />
<glyph unicode="&#xca;" horiz-adv-x="1060" d="M156 0v1460h811v-196h-613v-398h568v-196h-568v-473h613v-197h-811zM225 1597l224 330h159l226 -330h-183l-123 162l-122 -162h-181z" />
<glyph unicode="&#xcb;" horiz-adv-x="1060" d="M156 0v1460h811v-196h-613v-398h568v-196h-568v-473h613v-197h-811zM213 1597v244h211v-244h-211zM635 1597v244h211v-244h-211z" />
<glyph unicode="&#xcc;" horiz-adv-x="512" d="M-45 1944h223l170 -347h-188zM156 0v1460h198v-1460h-198z" />
<glyph unicode="&#xcd;" horiz-adv-x="512" d="M156 0v1460h198v-1460h-198zM162 1597l170 347h223l-205 -347h-188z" />
<glyph unicode="&#xce;" horiz-adv-x="512" d="M-47 1597l223 330h160l225 -330h-182l-123 162l-123 -162h-180zM156 0v1460h198v-1460h-198z" />
<glyph unicode="&#xcf;" horiz-adv-x="512" d="M-59 1597v244h211v-244h-211zM156 0v1460h198v-1460h-198zM362 1597v244h211v-244h-211z" />
<glyph unicode="&#xd0;" horiz-adv-x="1206" d="M61 672v186h154v602h440q96 0 171 -29.5t117.5 -73t70 -100.5t36.5 -104.5t9 -91.5v-660q0 -37 -6.5 -76t-22 -86t-45.5 -88t-71.5 -76t-106 -55t-143.5 -20h-449v672h-154zM414 197h245q34 0 64.5 8t63.5 28t53 63.5t20 106.5v652q0 64 -20.5 108t-54.5 64.5t-65 28.5 t-65 8h-241v-406h256v-186h-256v-475z" />
<glyph unicode="&#xd1;" horiz-adv-x="1165" d="M156 0v1460h219l436 -1030v1030h199v-1460h-224l-432 1014v-1014h-198zM242 1724q76 76 128.5 101.5t98.5 25.5q45 0 125.5 -39.5t105.5 -39.5q40 0 105 65l117 -115q-77 -74 -128.5 -99.5t-95.5 -25.5q-46 0 -128.5 41t-106.5 41q-18 0 -39 -12t-66 -55z" />
<glyph unicode="&#xd2;" d="M135 387v690q0 43 11 91t41 104t75.5 99.5t122.5 72.5t174 29q93 0 168.5 -29t121.5 -73t77 -99.5t43 -104.5t12 -92v-690q0 -44 -11.5 -93t-41.5 -106t-76 -101t-122.5 -73.5t-172.5 -29.5q-94 0 -170 29.5t-121.5 74.5t-76.5 101.5t-42.5 106t-11.5 93.5zM299 1944h223 l170 -347h-188zM334 387q0 -63 24 -108t62 -65.5t72 -29t67 -8.5q25 0 50.5 4.5t58 18.5t56.5 36t41 61.5t17 90.5v686q0 51 -17 89.5t-41 60t-56.5 34.5t-58 17t-50.5 4q-26 0 -52 -4t-58.5 -17t-57 -34.5t-41 -60t-16.5 -89.5v-686z" />
<glyph unicode="&#xd3;" d="M135 387v690q0 43 11 91t41 104t75.5 99.5t122.5 72.5t174 29q93 0 168.5 -29t121.5 -73t77 -99.5t43 -104.5t12 -92v-690q0 -44 -11.5 -93t-41.5 -106t-76 -101t-122.5 -73.5t-172.5 -29.5q-94 0 -170 29.5t-121.5 74.5t-76.5 101.5t-42.5 106t-11.5 93.5zM334 387 q0 -63 24 -108t62 -65.5t72 -29t67 -8.5q25 0 50.5 4.5t58 18.5t56.5 36t41 61.5t17 90.5v686q0 51 -17 89.5t-41 60t-56.5 34.5t-58 17t-50.5 4q-26 0 -52 -4t-58.5 -17t-57 -34.5t-41 -60t-16.5 -89.5v-686zM422 1597l170 347h223l-205 -347h-188z" />
<glyph unicode="&#xd4;" d="M135 387v690q0 43 11 91t41 104t75.5 99.5t122.5 72.5t174 29q93 0 168.5 -29t121.5 -73t77 -99.5t43 -104.5t12 -92v-690q0 -44 -11.5 -93t-41.5 -106t-76 -101t-122.5 -73.5t-172.5 -29.5q-94 0 -170 29.5t-121.5 74.5t-76.5 101.5t-42.5 106t-11.5 93.5zM254 1597 l223 330h160l225 -330h-182l-123 162l-123 -162h-180zM334 387q0 -63 24 -108t62 -65.5t72 -29t67 -8.5q25 0 50.5 4.5t58 18.5t56.5 36t41 61.5t17 90.5v686q0 51 -17 89.5t-41 60t-56.5 34.5t-58 17t-50.5 4q-26 0 -52 -4t-58.5 -17t-57 -34.5t-41 -60t-16.5 -89.5v-686z " />
<glyph unicode="&#xd5;" d="M135 387v690q0 43 11 91t41 104t75.5 99.5t122.5 72.5t174 29q93 0 168.5 -29t121.5 -73t77 -99.5t43 -104.5t12 -92v-690q0 -44 -11.5 -93t-41.5 -106t-76 -101t-122.5 -73.5t-172.5 -29.5q-94 0 -170 29.5t-121.5 74.5t-76.5 101.5t-42.5 106t-11.5 93.5zM217 1724 q76 76 128.5 101.5t98.5 25.5q45 0 126 -39.5t106 -39.5q39 0 104 65l117 -115q-77 -74 -128 -99.5t-95 -25.5q-46 0 -129 41t-107 41q-18 0 -38.5 -12t-65.5 -55zM334 387q0 -63 24 -108t62 -65.5t72 -29t67 -8.5q25 0 50.5 4.5t58 18.5t56.5 36t41 61.5t17 90.5v686 q0 51 -17 89.5t-41 60t-56.5 34.5t-58 17t-50.5 4q-26 0 -52 -4t-58.5 -17t-57 -34.5t-41 -60t-16.5 -89.5v-686z" />
<glyph unicode="&#xd6;" d="M135 387v690q0 43 11 91t41 104t75.5 99.5t122.5 72.5t174 29q93 0 168.5 -29t121.5 -73t77 -99.5t43 -104.5t12 -92v-690q0 -44 -11.5 -93t-41.5 -106t-76 -101t-122.5 -73.5t-172.5 -29.5q-94 0 -170 29.5t-121.5 74.5t-76.5 101.5t-42.5 106t-11.5 93.5zM242 1597v244 h211v-244h-211zM334 387q0 -63 24 -108t62 -65.5t72 -29t67 -8.5q25 0 50.5 4.5t58 18.5t56.5 36t41 61.5t17 90.5v686q0 51 -17 89.5t-41 60t-56.5 34.5t-58 17t-50.5 4q-26 0 -52 -4t-58.5 -17t-57 -34.5t-41 -60t-16.5 -89.5v-686zM664 1597v244h210v-244h-210z" />
<glyph unicode="&#xd7;" horiz-adv-x="1191" d="M215 295l254 254l-254 254l127 127l252 -254l254 254l127 -127l-254 -254l256 -256l-129 -123l-254 252l-252 -252z" />
<glyph unicode="&#xd8;" d="M104 -111l115 248q-42 58 -63 126t-21 124v688q0 43 11 91t41 103.5t75.5 99t122.5 72.5t174 29q145 0 252 -73l72 153h114l-106 -229q46 -57 68 -124.5t22 -123.5v-688q0 -44 -11.5 -93t-41.5 -106t-76 -101t-122.5 -73.5t-172.5 -29.5q-153 0 -258 75l-78 -168h-117z M334 379l393 838q-61 59 -168 59q-26 0 -52 -4t-58.5 -17t-57 -34.5t-41 -60t-16.5 -89.5v-684v-8zM385 242q61 -66 174 -66q25 0 50.5 4.5t58 18.5t56.5 36t41 61.5t17 90.5v684v19z" />
<glyph unicode="&#xd9;" d="M135 387v1073h199v-1073q0 -51 17 -90.5t41.5 -61.5t56.5 -36t58.5 -18.5t51.5 -4.5q33 0 66.5 8.5t71 29t61.5 65.5t24 108v1073h199v-1075q0 -47 -10.5 -96.5t-40.5 -106t-75 -99.5t-122 -72t-174 -29t-174 29t-122.5 72.5t-75.5 100.5t-41 106.5t-11 96.5zM319 1944 h224l170 -347h-189z" />
<glyph unicode="&#xda;" d="M135 387v1073h199v-1073q0 -51 17 -90.5t41.5 -61.5t56.5 -36t58.5 -18.5t51.5 -4.5q33 0 66.5 8.5t71 29t61.5 65.5t24 108v1073h199v-1075q0 -47 -10.5 -96.5t-40.5 -106t-75 -99.5t-122 -72t-174 -29t-174 29t-122.5 72.5t-75.5 100.5t-41 106.5t-11 96.5zM401 1597 l170 347h224l-205 -347h-189z" />
<glyph unicode="&#xdb;" d="M135 387v1073h199v-1073q0 -51 17 -90.5t41.5 -61.5t56.5 -36t58.5 -18.5t51.5 -4.5q33 0 66.5 8.5t71 29t61.5 65.5t24 108v1073h199v-1075q0 -47 -10.5 -96.5t-40.5 -106t-75 -99.5t-122 -72t-174 -29t-174 29t-122.5 72.5t-75.5 100.5t-41 106.5t-11 96.5zM254 1597 l223 330h160l225 -330h-182l-123 162l-123 -162h-180z" />
<glyph unicode="&#xdc;" d="M135 387v1073h199v-1073q0 -51 17 -90.5t41.5 -61.5t56.5 -36t58.5 -18.5t51.5 -4.5q33 0 66.5 8.5t71 29t61.5 65.5t24 108v1073h199v-1075q0 -47 -10.5 -96.5t-40.5 -106t-75 -99.5t-122 -72t-174 -29t-174 29t-122.5 72.5t-75.5 100.5t-41 106.5t-11 96.5zM242 1597 v244h211v-244h-211zM664 1597v244h210v-244h-210z" />
<glyph unicode="&#xdd;" horiz-adv-x="1056" d="M45 1460h217l266 -669l269 669h215l-385 -932v-528h-199v532zM393 1597l170 347h223l-204 -347h-189z" />
<glyph unicode="&#xde;" horiz-adv-x="1163" d="M156 0v1460h198v-309h281q184 0 293.5 -113.5t109.5 -300.5q0 -191 -109 -305.5t-294 -114.5h-281v-317h-198zM354 512h277q39 0 73.5 10.5t66.5 34t50.5 70t18.5 110.5q0 102 -55.5 160.5t-153.5 58.5h-277v-444z" />
<glyph unicode="&#xdf;" horiz-adv-x="1130" d="M156 0v1075q0 44 9 91t36.5 103t70 98.5t117 71.5t170.5 29q80 0 144.5 -20t106.5 -54.5t72 -74.5t45.5 -87t22 -85.5t6.5 -75.5q0 -72 -34 -145.5t-88 -104.5q48 -22 83.5 -64t53.5 -89.5t26.5 -88t8.5 -73.5v-105q0 -45 -9 -93t-36 -105t-69 -100.5t-115.5 -73 t-168.5 -29.5h-145v197h141q26 0 50.5 4t54 17t50.5 34t35.5 59.5t14.5 89.5v99q0 64 -18 108.5t-48.5 65t-58.5 28t-61 7.5h-91v196h89q68 0 103.5 42.5t35.5 121.5q0 51 -14.5 90t-35 59.5t-50 33.5t-52.5 16.5t-49 3.5t-50 -3.5t-53.5 -16.5t-51 -33.5t-36 -59.5 t-14.5 -90v-1069h-198z" />
<glyph unicode="&#xe0;" horiz-adv-x="1062" d="M104 336q0 151 104.5 231t276.5 80h236v82q0 170 -193 170q-172 0 -192 -145h-195q7 73 34 132t65.5 96.5t88.5 62.5t98.5 35t98.5 10q74 0 140 -19t123.5 -59t91.5 -111t34 -166v-735h-194v82q-34 -46 -104 -73t-146 -27q-67 0 -130.5 21.5t-117 63t-86.5 111.5t-33 158 zM293 1561h223l170 -347h-188zM299 338q0 -87 56 -127.5t141 -40.5q87 0 156 59.5t69 149.5v94h-234q-90 0 -139 -36.5t-49 -98.5z" />
<glyph unicode="&#xe1;" horiz-adv-x="1062" d="M104 336q0 151 104.5 231t276.5 80h236v82q0 170 -193 170q-172 0 -192 -145h-195q7 73 34 132t65.5 96.5t88.5 62.5t98.5 35t98.5 10q74 0 140 -19t123.5 -59t91.5 -111t34 -166v-735h-194v82q-34 -46 -104 -73t-146 -27q-67 0 -130.5 21.5t-117 63t-86.5 111.5t-33 158 zM299 338q0 -87 56 -127.5t141 -40.5q87 0 156 59.5t69 149.5v94h-234q-90 0 -139 -36.5t-49 -98.5zM375 1214l170 347h223l-205 -347h-188z" />
<glyph unicode="&#xe2;" horiz-adv-x="1062" d="M104 336q0 151 104.5 231t276.5 80h236v82q0 170 -193 170q-172 0 -192 -145h-195q7 73 34 132t65.5 96.5t88.5 62.5t98.5 35t98.5 10q74 0 140 -19t123.5 -59t91.5 -111t34 -166v-735h-194v82q-34 -46 -104 -73t-146 -27q-67 0 -130.5 21.5t-117 63t-86.5 111.5t-33 158 zM227 1221l224 329h159l226 -329h-183l-123 161l-122 -161h-181zM299 338q0 -87 56 -127.5t141 -40.5q87 0 156 59.5t69 149.5v94h-234q-90 0 -139 -36.5t-49 -98.5z" />
<glyph unicode="&#xe3;" horiz-adv-x="1062" d="M104 336q0 151 104.5 231t276.5 80h236v82q0 170 -193 170q-172 0 -192 -145h-195q7 73 34 132t65.5 96.5t88.5 62.5t98.5 35t98.5 10q74 0 140 -19t123.5 -59t91.5 -111t34 -166v-735h-194v82q-34 -46 -104 -73t-146 -27q-67 0 -130.5 21.5t-117 63t-86.5 111.5t-33 158 zM190 1348q76 76 129 101.5t99 25.5q45 0 125.5 -40t105.5 -40q40 0 105 65l116 -114q-77 -74 -128 -99.5t-95 -25.5q-46 0 -128.5 41t-106.5 41q-18 0 -39 -12.5t-66 -55.5zM299 338q0 -87 56 -127.5t141 -40.5q87 0 156 59.5t69 149.5v94h-234q-90 0 -139 -36.5t-49 -98.5 z" />
<glyph unicode="&#xe4;" horiz-adv-x="1062" d="M104 336q0 151 104.5 231t276.5 80h236v82q0 170 -193 170q-172 0 -192 -145h-195q7 73 34 132t65.5 96.5t88.5 62.5t98.5 35t98.5 10q74 0 140 -19t123.5 -59t91.5 -111t34 -166v-735h-194v82q-34 -46 -104 -73t-146 -27q-67 0 -130.5 21.5t-117 63t-86.5 111.5t-33 158 zM215 1245v244h211v-244h-211zM299 338q0 -87 56 -127.5t141 -40.5q87 0 156 59.5t69 149.5v94h-234q-90 0 -139 -36.5t-49 -98.5zM637 1245v244h211v-244h-211z" />
<glyph unicode="&#xe5;" horiz-adv-x="1062" d="M104 336q0 151 104.5 231t276.5 80h236v82q0 170 -193 170q-172 0 -192 -145h-195q7 73 34 132t65.5 96.5t88.5 62.5t98.5 35t98.5 10q74 0 140 -19t123.5 -59t91.5 -111t34 -166v-735h-194v82q-34 -46 -104 -73t-146 -27q-67 0 -130.5 21.5t-117 63t-86.5 111.5t-33 158 zM299 338q0 -87 56 -127.5t141 -40.5q87 0 156 59.5t69 149.5v94h-234q-90 0 -139 -36.5t-49 -98.5zM299 1364q0 95 68 163t163 68t163.5 -68t68.5 -163t-68.5 -163t-163.5 -68t-163 68t-68 163zM432 1364q0 -40 29 -69t69 -29t69.5 29t29.5 69t-29.5 69t-69.5 29t-69 -29 t-29 -69z" />
<glyph unicode="&#xe6;" horiz-adv-x="1660" d="M106 336q0 151 104.5 231t276.5 80h236v84q0 168 -193 168q-172 0 -194 -145h-197q7 74 36 133t69 96t91 62t99 35t96 10q87 0 168 -34t127 -95q47 56 129 92.5t170 36.5q185 0 293.5 -105.5t108.5 -286.5v-231h-608v-92q0 -38 9 -71t30 -64.5t63.5 -49.5t103.5 -18 q81 0 133.5 47.5t67.5 132.5h197q-20 -172 -127 -271t-271 -99q-90 0 -178 43t-133 110q-53 -68 -145.5 -110.5t-194.5 -42.5q-67 0 -130.5 21.5t-117 63t-86.5 111.5t-33 158zM301 338q0 -87 56 -127.5t141 -40.5q87 0 156 59.5t69 149.5v94h-234q-90 0 -139 -36.5 t-49 -98.5zM918 655h413v43q0 38 -9 70t-30.5 63.5t-64 49.5t-103.5 18q-97 0 -151 -49.5t-55 -140.5v-54z" />
<glyph unicode="&#xe7;" horiz-adv-x="1042" d="M135 375v323q0 178 112.5 285t295.5 107q167 0 275 -99t128 -272h-198q-14 78 -63 129t-142 51q-100 0 -156.5 -53t-56.5 -148v-323q0 -38 10 -71.5t32.5 -65t66 -50t104.5 -18.5q83 0 135.5 48.5t66.5 133.5h201q-22 -173 -129.5 -272.5t-273.5 -99.5q-185 0 -296.5 107 t-111.5 288zM274 -434l203 346h189l-174 -346h-218z" />
<glyph unicode="&#xe8;" horiz-adv-x="1075" d="M135 375v323q0 178 112.5 285t295.5 107q184 0 295.5 -106t111.5 -286v-231h-620v-92q0 -38 10 -71.5t32.5 -65t66 -50t104.5 -18.5q83 0 137 48.5t68 133.5h198q-22 -173 -129.5 -272.5t-273.5 -99.5q-185 0 -296.5 107t-111.5 288zM293 1561h223l170 -347h-188z M330 655h426v43q0 37 -10 70t-33 64t-66.5 49t-103.5 18q-100 0 -156.5 -53t-56.5 -148v-43z" />
<glyph unicode="&#xe9;" horiz-adv-x="1075" d="M135 375v323q0 178 112.5 285t295.5 107q184 0 295.5 -106t111.5 -286v-231h-620v-92q0 -38 10 -71.5t32.5 -65t66 -50t104.5 -18.5q83 0 137 48.5t68 133.5h198q-22 -173 -129.5 -272.5t-273.5 -99.5q-185 0 -296.5 107t-111.5 288zM330 655h426v43q0 37 -10 70t-33 64 t-66.5 49t-103.5 18q-100 0 -156.5 -53t-56.5 -148v-43zM375 1214l170 347h223l-205 -347h-188z" />
<glyph unicode="&#xea;" horiz-adv-x="1075" d="M135 375v323q0 178 112.5 285t295.5 107q184 0 295.5 -106t111.5 -286v-231h-620v-92q0 -38 10 -71.5t32.5 -65t66 -50t104.5 -18.5q83 0 137 48.5t68 133.5h198q-22 -173 -129.5 -272.5t-273.5 -99.5q-185 0 -296.5 107t-111.5 288zM233 1221l224 329h159l226 -329h-183 l-122 161l-123 -161h-181zM330 655h426v43q0 37 -10 70t-33 64t-66.5 49t-103.5 18q-100 0 -156.5 -53t-56.5 -148v-43z" />
<glyph unicode="&#xeb;" horiz-adv-x="1075" d="M135 375v323q0 178 112.5 285t295.5 107q184 0 295.5 -106t111.5 -286v-231h-620v-92q0 -38 10 -71.5t32.5 -65t66 -50t104.5 -18.5q83 0 137 48.5t68 133.5h198q-22 -173 -129.5 -272.5t-273.5 -99.5q-185 0 -296.5 107t-111.5 288zM221 1245v244h211v-244h-211z M330 655h426v43q0 37 -10 70t-33 64t-66.5 49t-103.5 18q-100 0 -156.5 -53t-56.5 -148v-43zM643 1245v244h211v-244h-211z" />
<glyph unicode="&#xec;" horiz-adv-x="503" d="M-51 1561h223l170 -347h-188zM156 0v1075h192v-1075h-192z" />
<glyph unicode="&#xed;" horiz-adv-x="503" d="M156 0v1075h192v-1075h-192zM158 1214l170 347h223l-205 -347h-188z" />
<glyph unicode="&#xee;" horiz-adv-x="503" d="M-51 1221l223 329h160l225 -329h-182l-123 161l-123 -161h-180zM156 0v1075h192v-1075h-192z" />
<glyph unicode="&#xef;" horiz-adv-x="503" d="M-63 1245v244h210v-244h-210zM156 0v1075h192v-1075h-192zM358 1245v244h211v-244h-211z" />
<glyph unicode="&#xf0;" horiz-adv-x="1157" d="M145 369v159q0 43 11 90.5t40 102.5t72.5 98.5t116.5 72t164 28.5q141 0 233 -68v11v30t0.5 42.5t0.5 48.5v47.5t-1 41t-2 27.5l-102 -105l-121 119l137 135q-57 45 -182 45v176q202 0 311 -92l156 160l121 -119l-172 -174q35 -53 35 -164v-716q0 -42 -11 -88.5 t-40.5 -100t-73.5 -95.5t-117 -69.5t-164 -27.5q-93 0 -167.5 28.5t-119 71t-74 96.5t-40.5 100.5t-11 88.5zM326 373q0 -52 17 -91.5t42 -61.5t58.5 -36t60 -18t53.5 -4q26 0 52 4t58.5 18t57 36t41 61.5t16.5 91.5v153q0 65 -24 110.5t-62 66.5t-71.5 29.5t-67.5 8.5 q-27 0 -54 -4.5t-60 -18.5t-58 -36.5t-42 -63t-17 -92.5v-153z" />
<glyph unicode="&#xf1;" horiz-adv-x="1103" d="M156 0v1075h194v-61q44 36 106 56t119 20q185 0 283 -103.5t98 -288.5v-698h-194v698q0 31 -3 56t-14.5 53.5t-31 47.5t-55 31.5t-83.5 12.5q-94 0 -159.5 -55.5t-65.5 -141.5v-702h-194zM211 1348q76 76 128.5 101.5t98.5 25.5q45 0 126 -40t106 -40q39 0 104 65 l117 -114q-77 -74 -128 -99.5t-95 -25.5q-46 0 -129 41t-107 41q-17 0 -38 -12.5t-66 -55.5z" />
<glyph unicode="&#xf2;" horiz-adv-x="1085" d="M135 375v323q0 178 112.5 285t295.5 107q184 0 295.5 -106t111.5 -286v-323q0 -178 -113 -286.5t-294 -108.5q-185 0 -296.5 107t-111.5 288zM293 1561h223l170 -347h-188zM330 375q0 -38 10 -71.5t32.5 -65t66 -50t104.5 -18.5q98 0 155.5 55.5t57.5 149.5v323 q0 37 -10 70t-33 64t-66.5 49t-103.5 18q-100 0 -156.5 -53t-56.5 -148v-323z" />
<glyph unicode="&#xf3;" horiz-adv-x="1085" d="M135 375v323q0 178 112.5 285t295.5 107q184 0 295.5 -106t111.5 -286v-323q0 -178 -113 -286.5t-294 -108.5q-185 0 -296.5 107t-111.5 288zM330 375q0 -38 10 -71.5t32.5 -65t66 -50t104.5 -18.5q98 0 155.5 55.5t57.5 149.5v323q0 37 -10 70t-33 64t-66.5 49 t-103.5 18q-100 0 -156.5 -53t-56.5 -148v-323zM375 1214l170 347h223l-205 -347h-188z" />
<glyph unicode="&#xf4;" horiz-adv-x="1085" d="M135 375v323q0 178 112.5 285t295.5 107q184 0 295.5 -106t111.5 -286v-323q0 -178 -113 -286.5t-294 -108.5q-185 0 -296.5 107t-111.5 288zM238 1221l223 329h160l225 -329h-182l-123 161l-123 -161h-180zM330 375q0 -38 10 -71.5t32.5 -65t66 -50t104.5 -18.5 q98 0 155.5 55.5t57.5 149.5v323q0 37 -10 70t-33 64t-66.5 49t-103.5 18q-100 0 -156.5 -53t-56.5 -148v-323z" />
<glyph unicode="&#xf5;" horiz-adv-x="1085" d="M135 375v323q0 178 112.5 285t295.5 107q184 0 295.5 -106t111.5 -286v-323q0 -178 -113 -286.5t-294 -108.5q-185 0 -296.5 107t-111.5 288zM203 1348q76 76 128.5 101.5t98.5 25.5q45 0 126 -40t106 -40q39 0 104 65l117 -114q-77 -74 -128.5 -99.5t-95.5 -25.5 q-46 0 -128.5 41t-106.5 41q-18 0 -39 -12.5t-66 -55.5zM330 375q0 -38 10 -71.5t32.5 -65t66 -50t104.5 -18.5q98 0 155.5 55.5t57.5 149.5v323q0 37 -10 70t-33 64t-66.5 49t-103.5 18q-100 0 -156.5 -53t-56.5 -148v-323z" />
<glyph unicode="&#xf6;" horiz-adv-x="1085" d="M135 375v323q0 178 112.5 285t295.5 107q184 0 295.5 -106t111.5 -286v-323q0 -178 -113 -286.5t-294 -108.5q-185 0 -296.5 107t-111.5 288zM225 1245v244h211v-244h-211zM330 375q0 -38 10 -71.5t32.5 -65t66 -50t104.5 -18.5q98 0 155.5 55.5t57.5 149.5v323 q0 37 -10 70t-33 64t-66.5 49t-103.5 18q-100 0 -156.5 -53t-56.5 -148v-323zM647 1245v244h211v-244h-211z" />
<glyph unicode="&#xf7;" horiz-adv-x="1095" d="M150 350v187h782v-187h-782zM408 0v262h264v-262h-264zM408 618v263h264v-263h-264z" />
<glyph unicode="&#xf8;" horiz-adv-x="1085" d="M135 375v323q0 178 112.5 285t295.5 107q103 0 184 -35l61 127h117l-86 -183q131 -109 131 -301v-323q0 -178 -113 -286.5t-294 -108.5q-107 0 -193 36l-59 -122h-119l86 182q-123 107 -123 299zM330 375q0 -60 22 -105l293 611q-44 18 -102 18q-100 0 -156.5 -53 t-56.5 -148v-323zM432 190q41 -20 111 -20q98 0 155.5 55.5t57.5 149.5v323q0 60 -29 111z" />
<glyph unicode="&#xf9;" horiz-adv-x="1110" d="M147 375v700h195v-700q0 -38 9 -71t30.5 -64.5t64 -49.5t103.5 -18q93 0 151 53t58 140v710h194v-1075h-194v70q-32 -35 -90.5 -61.5t-118.5 -26.5q-184 0 -293 106.5t-109 286.5zM297 1561h223l170 -347h-188z" />
<glyph unicode="&#xfa;" horiz-adv-x="1110" d="M147 375v700h195v-700q0 -38 9 -71t30.5 -64.5t64 -49.5t103.5 -18q93 0 151 53t58 140v710h194v-1075h-194v70q-32 -35 -90.5 -61.5t-118.5 -26.5q-184 0 -293 106.5t-109 286.5zM399 1214l170 347h224l-205 -347h-189z" />
<glyph unicode="&#xfb;" horiz-adv-x="1110" d="M147 375v700h195v-700q0 -38 9 -71t30.5 -64.5t64 -49.5t103.5 -18q93 0 151 53t58 140v710h194v-1075h-194v70q-32 -35 -90.5 -61.5t-118.5 -26.5q-184 0 -293 106.5t-109 286.5zM250 1221l223 329h160l225 -329h-182l-123 161l-123 -161h-180z" />
<glyph unicode="&#xfc;" horiz-adv-x="1110" d="M147 375v700h195v-700q0 -38 9 -71t30.5 -64.5t64 -49.5t103.5 -18q93 0 151 53t58 140v710h194v-1075h-194v70q-32 -35 -90.5 -61.5t-118.5 -26.5q-184 0 -293 106.5t-109 286.5zM238 1245v244h211v-244h-211zM659 1245v244h211v-244h-211z" />
<glyph unicode="&#xfd;" horiz-adv-x="929" d="M35 1075h205l231 -846l219 846h205l-338 -1274q-22 -85 -53.5 -139t-76.5 -80.5t-92.5 -35.5t-119.5 -9h-92v191h117q49 0 78 20t42 70l50 182h-74zM324 1214l170 347h223l-205 -347h-188z" />
<glyph unicode="&#xfe;" horiz-adv-x="1089" d="M156 -463v1882h194v-418q32 39 91 64t116 25q183 0 290 -105.5t107 -286.5v-323q0 -179 -108.5 -287t-288.5 -108q-55 0 -116 26t-91 64v-533h-194zM350 375q0 -39 8.5 -71.5t30 -64.5t64.5 -50.5t104 -18.5q96 0 149.5 55t53.5 150v323q0 38 -8.5 70t-29.5 63.5 t-63 49.5t-102 18q-98 0 -152.5 -53t-54.5 -148v-323z" />
<glyph unicode="&#xff;" horiz-adv-x="929" d="M35 1075h205l231 -846l219 846h205l-338 -1274q-22 -85 -53.5 -139t-76.5 -80.5t-92.5 -35.5t-119.5 -9h-92v191h117q49 0 78 20t42 70l50 182h-74zM150 1245v244h210v-244h-210zM571 1245v244h211v-244h-211z" />
<glyph unicode="&#x152;" horiz-adv-x="1687" d="M135 387v688q0 43 11.5 91t41.5 103.5t76 99t122.5 72.5t172.5 29q128 0 223 -53v43h811v-196h-612v-398h567v-196h-567v-473h612v-197h-811v35q-101 -53 -225 -53q-93 0 -168.5 29.5t-121.5 74.5t-77 101.5t-43 106t-12 93.5zM334 387q0 -51 17 -90.5t41.5 -61.5 t56.5 -36t58.5 -18.5t51.5 -4.5t51 4.5t57.5 17.5t55.5 33.5t41 57.5t18 84v698q0 51 -16.5 89.5t-40.5 60t-56 34.5t-58 17t-52 4t-51.5 -4t-58.5 -17t-57 -34.5t-41 -60t-17 -89.5v-684z" />
<glyph unicode="&#x153;" horiz-adv-x="1681" d="M135 375v323q0 174 112 283t292 109q188 0 303 -121q109 121 303 121q180 0 290.5 -107.5t110.5 -284.5v-231h-608v-107q0 -77 48.5 -133.5t158.5 -56.5q79 0 131 48.5t67 133.5h199q-20 -172 -126.5 -272t-270.5 -100q-202 0 -305 118q-103 -118 -301 -118 q-183 0 -293.5 109t-110.5 286zM330 375q0 -36 10 -69t32 -65t65 -51.5t102 -19.5q95 0 149.5 53t54.5 144v344q-13 188 -204 188q-98 0 -153.5 -53t-55.5 -148v-323zM938 655h414v43q0 37 -10 70t-32 63.5t-64.5 49t-100.5 18.5q-97 0 -151.5 -49.5t-55.5 -140.5v-54z" />
<glyph unicode="&#x178;" horiz-adv-x="1056" d="M45 1460h217l266 -669l269 669h215l-385 -932v-528h-199v532zM211 1597v244h211v-244h-211zM633 1597v244h211v-244h-211z" />
<glyph unicode="&#x2c6;" horiz-adv-x="974" d="M182 1221l224 329h159l226 -329h-183l-123 161l-123 -161h-180z" />
<glyph unicode="&#x2dc;" horiz-adv-x="1015" d="M168 1348q76 76 128.5 101.5t98.5 25.5q45 0 126 -40t106 -40q39 0 104 65l117 -114q-77 -74 -128 -99.5t-95 -25.5q-46 0 -129 41t-107 41q-17 0 -38 -12.5t-66 -55.5z" />
<glyph unicode="&#x2000;" horiz-adv-x="986" />
<glyph unicode="&#x2001;" horiz-adv-x="1972" />
<glyph unicode="&#x2002;" horiz-adv-x="986" />
<glyph unicode="&#x2003;" horiz-adv-x="1972" />
<glyph unicode="&#x2004;" horiz-adv-x="657" />
<glyph unicode="&#x2005;" horiz-adv-x="493" />
<glyph unicode="&#x2006;" horiz-adv-x="328" />
<glyph unicode="&#x2007;" horiz-adv-x="328" />
<glyph unicode="&#x2008;" horiz-adv-x="246" />
<glyph unicode="&#x2009;" horiz-adv-x="394" />
<glyph unicode="&#x200a;" horiz-adv-x="109" />
<glyph unicode="&#x2010;" horiz-adv-x="940" d="M156 483v185h628v-185h-628z" />
<glyph unicode="&#x2011;" horiz-adv-x="940" d="M156 483v185h628v-185h-628z" />
<glyph unicode="&#x2012;" horiz-adv-x="940" d="M156 483v185h628v-185h-628z" />
<glyph unicode="&#x2013;" horiz-adv-x="1185" d="M156 483v185h874v-185h-874z" />
<glyph unicode="&#x2014;" horiz-adv-x="1665" d="M156 483v185h1353v-185h-1353z" />
<glyph unicode="&#x2018;" horiz-adv-x="583" d="M86 1102l209 440h182l-174 -440h-217z" />
<glyph unicode="&#x2019;" horiz-adv-x="581" d="M106 1102l173 440h217l-211 -440h-179z" />
<glyph unicode="&#x201a;" horiz-adv-x="581" d="M86 -236l172 441h217l-211 -441h-178z" />
<glyph unicode="&#x201c;" horiz-adv-x="923" d="M86 1102l209 440h182l-174 -440h-217zM428 1102l211 440h178l-172 -440h-217z" />
<glyph unicode="&#x201d;" horiz-adv-x="923" d="M106 1102l173 440h217l-211 -440h-179zM446 1102l175 440h217l-209 -440h-183z" />
<glyph unicode="&#x201e;" horiz-adv-x="923" d="M86 -236l172 441h217l-211 -441h-178zM426 -236l174 441h217l-209 -441h-182z" />
<glyph unicode="&#x2022;" horiz-adv-x="788" d="M156 705q0 100 69.5 170.5t169.5 70.5q99 0 168.5 -70.5t69.5 -170.5q0 -99 -69.5 -168.5t-168.5 -69.5t-169 69.5t-70 168.5z" />
<glyph unicode="&#x2026;" horiz-adv-x="1349" d="M147 0v254h236v-254h-236zM559 0v254h232v-254h-232zM969 0v254h235v-254h-235z" />
<glyph unicode="&#x202f;" horiz-adv-x="394" />
<glyph unicode="&#x2039;" horiz-adv-x="632" d="M53 539l445 446v-256l-189 -190l189 -189v-254z" />
<glyph unicode="&#x203a;" horiz-adv-x="630" d="M135 96v254l191 189l-191 190v256l443 -446z" />
<glyph unicode="&#x205f;" horiz-adv-x="493" />
<glyph unicode="&#x20ac;" horiz-adv-x="1126" d="M86 500v186h162v98h-162v187h162v104q0 45 9 92t36 103t69.5 99t117.5 72t171 29q91 0 162.5 -30t114 -75.5t71 -105.5t39.5 -112t13 -103h-197q-2 58 -17.5 102t-36.5 68t-49 38.5t-51.5 19t-48.5 4.5q-26 0 -50 -4t-53.5 -17t-51 -34t-36 -60t-14.5 -90v-100h371v-187 h-371v-98h371v-186h-371v-113q0 -52 14.5 -91.5t36 -61.5t50.5 -36t53.5 -18t50.5 -4q31 0 61 9t63 32t55 71.5t26 117.5h197q-3 -56 -15 -109.5t-41.5 -112t-73.5 -102t-116.5 -72t-163.5 -28.5q-95 0 -168 29.5t-115 73.5t-68.5 101.5t-35 105t-8.5 93.5v115h-162z" />
<glyph unicode="&#x2122;" horiz-adv-x="1468" d="M156 1247v172h536v-172h-182v-629h-174v629h-180zM737 618v801h213l76 -268l70 268h217v-801h-172v429l-51 -240h-129l-52 240v-429h-172z" />
<glyph unicode="&#x25fc;" horiz-adv-x="1075" d="M0 0v1075h1075v-1075h-1075z" />
<glyph unicode="&#xfb01;" horiz-adv-x="1230" d="M33 885v190h176v70q0 149 75 232t224 83h117v-190h-133q-35 0 -62 -24t-27 -77v-94h658v-1075h-195v885h-463v-885h-194v885h-176zM852 1217v249h219v-249h-219z" />
<glyph unicode="&#xfb02;" horiz-adv-x="1222" d="M33 885v190h176v70q0 149 75 232t224 83h117v-190h-133q-35 0 -62 -24t-27 -77v-94h441v385h194v-1179q0 -48 23.5 -69.5t60.5 -21.5h72v-190h-82q-119 0 -193.5 71t-74.5 218v596h-441v-885h-194v885h-176z" />
</font>
</defs>
</svg>
