<?xml version="1.0" standalone="no"?>
<!DOCTYPE svg PUBLIC "-//W3C//DTD SVG 1.1//EN" "http://www.w3.org/Graphics/SVG/1.1/DTD/svg11.dtd" >
<svg xmlns="http://www.w3.org/2000/svg" xmlns:xlink="http://www.w3.org/1999/xlink" version="1.1">
<metadata></metadata>
<defs>
<font id="oxfam_tstar_proheadline" horiz-adv-x="1132" >
<font-face units-per-em="2048" ascent="1585" descent="-463" />
<missing-glyph horiz-adv-x="512" />
<glyph horiz-adv-x="0" />
<glyph horiz-adv-x="682" />
<glyph unicode=" "  horiz-adv-x="512" />
<glyph unicode="&#x09;" horiz-adv-x="512" />
<glyph unicode="&#xa0;" horiz-adv-x="512" />
<glyph unicode="!" horiz-adv-x="608" d="M147 0v315h314v-315h-314zM176 442v1018h256v-1018h-256z" />
<glyph unicode="&#x22;" horiz-adv-x="757" d="M133 1120v422h207v-422h-207zM420 1120v422h207v-422h-207z" />
<glyph unicode="#" horiz-adv-x="1331" d="M147 428v209h199l29 162h-168v207h194l62 358h219l-57 -358h157l64 358h215l-62 -358h185v-207h-215l-27 -162h184v-209h-215l-63 -391h-213l57 391h-157l-68 -391h-217l63 391h-166zM563 637h162l29 162h-162z" />
<glyph unicode="$" horiz-adv-x="1085" d="M88 442h266q0 -93 52.5 -146.5t132.5 -53.5q90 0 143 47t53 119q0 95 -100 153q-43 26 -316 164q-91 45 -149.5 140t-58.5 208q0 142 81 244.5t218 136.5v160h252v-158q146 -38 232.5 -156t86.5 -280h-268q0 90 -47 141t-127 51q-73 0 -118.5 -38.5t-45.5 -104.5 q0 -74 86 -119q297 -152 299 -153q116 -63 176.5 -163.5t60.5 -230.5q0 -150 -92.5 -260.5t-242.5 -146.5v-160h-252v162q-152 38 -237 157t-85 287z" />
<glyph unicode="%" horiz-adv-x="1781" d="M145 913v191q0 131 80 210t211 79q133 0 213 -78t80 -211v-191q0 -129 -80.5 -205.5t-212.5 -76.5t-211.5 76t-79.5 206zM367 915q0 -67 69 -67q72 0 72 67v191q0 70 -72 70q-69 0 -69 -70v-191zM535 -102l534 1636h182l-532 -1636h-184zM1051 301v191q0 131 79.5 209.5 t210.5 78.5q133 0 213 -77.5t80 -210.5v-191q0 -129 -80.5 -206t-212.5 -77q-131 0 -210.5 76.5t-79.5 206.5zM1272 303q0 -67 69 -67q72 0 72 67v191q0 69 -72 69q-69 0 -69 -69v-191z" />
<glyph unicode="&#x26;" horiz-adv-x="1357" d="M127 428q0 221 195 363q-74 66 -105 135t-31 157q0 82 26.5 149t68.5 110t97.5 72t111 41.5t110.5 12.5t110.5 -12.5t111 -42.5t97.5 -73.5t68.5 -111t26.5 -149.5h-269q0 125 -145 125t-145 -125q0 -39 16.5 -63.5t54.5 -57.5q72 -59 351 -294.5t333 -282.5l-170 -213 l-49 47q-58 -117 -168.5 -174t-236.5 -57q-67 0 -130 14.5t-123.5 48t-105.5 83t-72.5 126.5t-27.5 172zM395 426q0 -50 17.5 -86t46.5 -55.5t60.5 -28t66.5 -8.5q67 0 121 36.5t65 116.5q-52 45 -140.5 119.5t-111.5 93.5q-125 -78 -125 -188z" />
<glyph unicode="'" horiz-adv-x="522" d="M156 1120v422h206v-422h-206z" />
<glyph unicode="(" horiz-adv-x="651" d="M147 205v985q0 103 35.5 178t143.5 176l32 31l146 -160q-1 -2 -7.5 -8t-15 -13.5t-10.5 -9.5q-6 -7 -25 -27t-25 -27.5t-19 -26.5t-17.5 -34t-9 -38.5t-4.5 -50.5v-965q0 -44 2 -63t18 -46t39.5 -50t79.5 -72l-150 -170l-36 34q-52 49 -86 91t-52.5 71.5t-27 66.5t-10 60 t-1.5 68z" />
<glyph unicode=")" horiz-adv-x="657" d="M147 -16q101 89 120.5 121.5t19.5 109.5v965q0 33 -4 57t-18 48.5t-19 32t-31 35.5t-29 31q-2 2 -10 9.5t-14.5 13.5t-7.5 8l145 160l33 -31q108 -100 143 -175t35 -179v-985q0 -46 -1.5 -68t-10 -59.5t-26.5 -67t-52 -71.5t-86 -91l-37 -34z" />
<glyph unicode="*" horiz-adv-x="1214" d="M254 944l149 82q-17 9 -70 40t-79 44l102 180l150 -90q0 28 -2 89.5t-2 86.5h207l-9 -180l154 94l102 -182l-147 -80q43 -24 152 -82l-107 -180l-154 92l9 -178h-207l4 176l-150 -90z" />
<glyph unicode="+" horiz-adv-x="1138" d="M135 465v217h322v313h219v-313h325v-217h-325v-336h-219v336h-322z" />
<glyph unicode="," horiz-adv-x="686" d="M35 -227l205 510h278l-260 -510h-223z" />
<glyph unicode="-" horiz-adv-x="937" d="M147 465v217h644v-217h-644z" />
<glyph unicode="." horiz-adv-x="567" d="M139 0v289h289v-289h-289z" />
<glyph unicode="/" horiz-adv-x="1048" d="M147 -98l527 1607h227l-522 -1607h-232z" />
<glyph unicode="0" horiz-adv-x="1073" d="M125 395v668q0 45 9.5 93.5t38 106.5t72.5 102.5t120.5 74.5t173.5 30t173 -30t118.5 -74.5t70 -103t36.5 -107t9 -94.5v-668q0 -46 -9.5 -94.5t-37.5 -107t-72 -103t-121 -74.5t-176 -30q-96 0 -170.5 30.5t-117.5 75t-70.5 103t-37 107.5t-9.5 95zM391 395 q0 -45 15 -76t39.5 -45.5t46.5 -20t45 -5.5t44.5 5.5t45.5 20t38.5 45.5t14.5 76v666q0 45 -14.5 76.5t-38.5 45t-45 18.5t-45 5t-45 -5t-46 -18.5t-40 -45t-15 -76.5v-666z" />
<glyph unicode="1" horiz-adv-x="1085" d="M145 0v264h265v926l-193 -16v260l459 39v-1209h270v-264h-801z" />
<glyph unicode="2" horiz-adv-x="1062" d="M100 0v330q0 185 193 344q54 46 173 115t175 116q55 49 55 142q0 77 -44 117t-122 40q-156 0 -161 -217h-267q0 39 5.5 80t19.5 89t35 92t55.5 85t77.5 71t103.5 48t131.5 18q191 0 312 -117t121 -304q0 -215 -148 -342q-55 -45 -180.5 -120.5t-183.5 -123.5 q-84 -66 -84 -146v-53h596v-264h-863z" />
<glyph unicode="3" horiz-adv-x="1069" d="M104 438h267q0 -56 16.5 -96.5t43 -59t51 -26.5t48.5 -8q25 0 50.5 6.5t52.5 22t44 47.5t17 77v131q0 43 -17.5 73t-46 43t-52.5 17.5t-50 4.5h-137v200l205 324h-438v264h776v-219l-223 -340q66 -26 117 -70t78.5 -95.5t41 -101t13.5 -95.5v-136q0 -46 -12 -97 t-43 -109.5t-77.5 -104t-123.5 -76t-173 -30.5q-98 0 -175.5 30.5t-123.5 77.5t-76.5 109.5t-41.5 120.5t-11 116z" />
<glyph unicode="4" horiz-adv-x="1089" d="M119 375v219l319 864h277l-301 -819h288v496h267v-1135h-267v375h-583z" />
<glyph unicode="5" horiz-adv-x="1062" d="M92 432h266q0 -84 46 -134t124 -50q72 0 123 42.5t51 115.5v124q0 68 -44 115t-126 47h-387v203l41 563h717v-264h-469l-16 -238h119q114 0 212 -51.5t159 -149t61 -220.5v-127q0 -121 -60.5 -219t-161 -151.5t-219.5 -53.5q-182 0 -309 126t-127 322z" />
<glyph unicode="6" horiz-adv-x="1075" d="M104 387v672q0 44 12 93.5t43.5 106.5t78.5 102t125 75t174 30t174 -30t124.5 -75t78 -102t43.5 -106.5t12 -93.5h-267q0 36 -12 63.5t-29 42t-41 23.5t-43 11.5t-40 2.5q-27 0 -52 -5.5t-52.5 -20t-44.5 -45.5t-17 -76v-123q83 39 166 39q96 0 172.5 -29.5t122.5 -73.5 t76 -101t41.5 -108t11.5 -98v-172q0 -44 -11 -93t-41.5 -106t-77 -101.5t-125.5 -74.5t-178 -30q-94 0 -170 29.5t-122 74t-77 100.5t-43 105.5t-12 93.5zM371 395q0 -35 12 -62.5t29 -43t40 -25t41.5 -13t36.5 -3.5q25 0 49.5 5.5t52.5 20t45 45.5t17 76v166q0 45 -17 76 t-45 45t-52.5 19.5t-49.5 5.5q-24 0 -47.5 -5.5t-50.5 -19.5t-44 -45t-17 -76v-166z" />
<glyph unicode="7" horiz-adv-x="1060" d="M84 1194v264h893v-203l-451 -1255h-284l434 1194h-592z" />
<glyph unicode="8" horiz-adv-x="1083" d="M88 434q0 78 36.5 166.5t111.5 149.5q-63 59 -98.5 138.5t-35.5 153.5q0 53 11.5 107t43 112.5t79 103.5t127 74t180.5 29q98 0 176.5 -29t126 -74t79.5 -103.5t44 -112.5t12 -107q0 -72 -36 -153t-103 -139q78 -61 115.5 -149.5t37.5 -166.5q0 -54 -11.5 -110 t-43.5 -118.5t-81 -110.5t-130.5 -79.5t-185.5 -31.5q-102 0 -183.5 31.5t-131 79.5t-82.5 110t-45.5 118.5t-12.5 110.5zM356 434q0 -45 14 -80t34.5 -54t47.5 -31.5t48.5 -16.5t42.5 -4q20 0 41.5 4t48 16.5t46.5 31.5t34 54t14 80q0 82 -53 131t-131 49 q-80 0 -133.5 -49.5t-53.5 -130.5zM369 1042q0 -75 49.5 -120t124.5 -45q74 0 122 45.5t48 119.5q0 48 -18.5 82.5t-47.5 50.5t-54.5 22.5t-49.5 6.5q-19 0 -39.5 -3.5t-45.5 -14.5t-44 -28t-32 -47t-13 -69z" />
<glyph unicode="9" horiz-adv-x="1075" d="M104 393h267q0 -45 17 -75.5t45.5 -44t53.5 -18.5t52 -5q26 0 51 5.5t52 20t43.5 45.5t16.5 76v125q-100 -41 -167 -41q-96 0 -172.5 30.5t-122.5 76t-76 103.5t-41.5 108.5t-11.5 95.5v166q0 44 11.5 93.5t42 107t77 102t124 74.5t175.5 30q96 0 173 -29.5t123.5 -74 t77.5 -100.5t42.5 -105.5t11.5 -93.5v-672q0 -44 -12 -93.5t-43.5 -106.5t-78 -102t-124.5 -75t-174 -30t-174 30t-125 75t-78.5 102t-43.5 106.5t-12 93.5zM377 895q0 -46 18 -78t46.5 -46.5t53 -20t48.5 -5.5t48 5.5t51 20t43.5 46.5t16.5 78v166q0 45 -16.5 75.5t-44 44 t-50.5 18.5t-48 5q-24 0 -48 -5t-53 -18.5t-47 -44t-18 -75.5v-166z" />
<glyph unicode=":" horiz-adv-x="567" d="M139 0v289h289v-289h-289zM139 596v289h289v-289h-289z" />
<glyph unicode=";" horiz-adv-x="614" d="M-35 -227l205 510h279l-261 -510h-223zM158 596v289h288v-289h-288z" />
<glyph unicode="&#x3c;" horiz-adv-x="1144" d="M147 537l531 536h313l-532 -536l538 -537h-313z" />
<glyph unicode="=" horiz-adv-x="1208" d="M221 309v215h766v-215h-766zM221 659v215h766v-215h-766z" />
<glyph unicode="&#x3e;" horiz-adv-x="1146" d="M147 0l537 537l-530 536h311l534 -536l-540 -537h-312z" />
<glyph unicode="?" horiz-adv-x="927" d="M35 979q0 56 11.5 116.5t42.5 128.5t77.5 121t124.5 88t176 35q189 0 307.5 -117t118.5 -304q0 -114 -57.5 -201.5t-151.5 -163.5q-7 -6 -29 -22.5t-30.5 -23.5t-24.5 -24t-22.5 -31.5t-12.5 -36.5t-6 -48v-54h-266v47q0 83 27.5 156.5t68.5 120.5q20 23 65.5 58 t80.5 61.5t63.5 69.5t28.5 89q0 79 -41.5 120.5t-118.5 41.5q-26 0 -50 -8.5t-51 -30.5t-45 -70.5t-22 -117.5h-264zM272 0v315h314v-315h-314z" />
<glyph unicode="@" horiz-adv-x="1304" d="M201 -27v1090q0 43 11 91.5t42.5 106.5t79.5 103t131 75.5t188 30.5q103 0 185 -30.5t130 -76t79.5 -103.5t43 -107t11.5 -92v-1024h-182v51q-16 -20 -53 -35.5t-72 -15.5q-126 0 -206.5 72t-80.5 210v373q0 91 42 157t107 96t144 30q30 0 60.5 -12.5t45.5 -30.5v127 q0 50 -15.5 90t-41 65t-59.5 42t-68 23.5t-70 6.5q-35 0 -69.5 -7t-69 -24.5t-60.5 -43t-42.5 -66t-16.5 -90.5v-1075q0 -60 27 -103t70 -63.5t82.5 -29.5t78.5 -9v-195q-103 1 -185 29t-131 70t-81 96.5t-43.5 103t-11.5 94.5zM692 326q0 -52 29 -78.5t74 -26.5 q49 0 80.5 26t31.5 79v364q0 50 -33 75.5t-77 25.5q-46 0 -75.5 -26.5t-29.5 -80.5v-358z" />
<glyph unicode="A" horiz-adv-x="1175" d="M39 0l385 1458h328l385 -1458h-269l-86 334h-389l-86 -334h-268zM459 598h258l-129 510z" />
<glyph unicode="B" horiz-adv-x="1148" d="M147 0v1458h455q100 0 177.5 -30t120.5 -74t70 -102t35.5 -106t8.5 -95v-25q0 -70 -40 -148.5t-108 -123.5q77 -50 123.5 -130t46.5 -163v-47q0 -45 -10 -94.5t-39 -108.5t-74 -104t-123 -76t-178 -31h-465zM414 264h194q26 0 50 5.5t51.5 20t44 47t16.5 79.5v43 q0 48 -14.5 81.5t-38.5 49t-48 22t-51 6.5h-204v-354zM414 881h198q136 0 136 149v19q0 145 -148 145h-186v-313z" />
<glyph unicode="C" horiz-adv-x="1093" d="M127 406v649q0 45 11 95t42.5 108.5t78.5 103.5t127 75.5t181 30.5q96 0 174 -33t126 -83.5t80.5 -113.5t45.5 -119t13 -105h-267q0 59 -18.5 100t-48.5 59.5t-55 25.5t-50 7q-26 0 -52 -6t-55.5 -20.5t-48 -48t-18.5 -80.5v-645q0 -48 18.5 -82.5t48 -50.5t55.5 -22.5 t52 -6.5q19 0 38.5 4t44.5 17.5t44 34t32 57.5t13 85h267q0 -58 -12 -116.5t-43.5 -122t-79.5 -111.5t-127 -79t-179 -31q-98 0 -177 31t-126.5 78t-79 106t-43.5 111t-12 98z" />
<glyph unicode="D" horiz-adv-x="1148" d="M147 0v1458h455q100 0 178 -31t122.5 -76.5t72.5 -105t37.5 -108.5t9.5 -95v-624q0 -47 -9.5 -96.5t-37 -109t-71 -105t-120 -76.5t-174.5 -31h-463zM414 264h188q25 0 48.5 6t49 21t41 48t15.5 81v616q0 39 -11 69t-27.5 46t-39 26.5t-41.5 13.5t-39 3h-184v-930z" />
<glyph unicode="E" horiz-adv-x="1077" d="M147 0v1458h844v-264h-577v-295h534v-264h-534v-371h577v-264h-844z" />
<glyph unicode="F" horiz-adv-x="1056" d="M147 0v1458h844v-264h-577v-297h534v-264h-534v-633h-267z" />
<glyph unicode="G" d="M127 406v651q0 45 11.5 95t42.5 107.5t78.5 103t127.5 75.5t180 30q97 0 175 -31.5t126 -80.5t80.5 -111.5t45 -119t12.5 -109.5h-267q0 58 -18.5 98t-48.5 58t-55 25t-50 7q-27 0 -52.5 -5.5t-55 -19.5t-48 -46.5t-18.5 -79.5v-652q0 -48 18.5 -81.5t48 -48t55 -20 t52.5 -5.5q19 0 38.5 3t44.5 12.5t44 25.5t32 45.5t13 68.5v191h-215v264h482v-453q0 -46 -12.5 -97.5t-45 -110.5t-80.5 -105.5t-127.5 -77t-177.5 -30.5t-176.5 31t-125.5 78t-78.5 106t-43.5 111t-12 98z" />
<glyph unicode="H" horiz-adv-x="1198" d="M147 0v1458h267v-565h370v565h267v-1458h-267v629h-370v-629h-267z" />
<glyph unicode="I" horiz-adv-x="561" d="M147 0v1458h267v-1458h-267z" />
<glyph unicode="J" horiz-adv-x="964" d="M25 440h266q0 -58 12.5 -99t34.5 -60t43.5 -27t46.5 -8q24 0 45 5.5t42 20t33.5 44t12.5 71.5v807h-397v264h663v-1057q0 -199 -105 -309t-296 -110q-188 0 -294.5 125.5t-106.5 332.5z" />
<glyph unicode="K" horiz-adv-x="1136" d="M147 0v1458h267v-528l358 528h311l-462 -661l481 -797h-316l-321 561l-51 -74v-487h-267z" />
<glyph unicode="L" horiz-adv-x="1003" d="M147 0v1458h267v-1194h575v-264h-842z" />
<glyph unicode="M" horiz-adv-x="1363" d="M147 0v1458h277l256 -639l256 639h281v-1458h-265v877l-186 -465h-168l-186 467v-879h-265z" />
<glyph unicode="N" horiz-adv-x="1179" d="M147 0v1458h265l354 -844v844h266v-1458h-268l-350 827v-827h-267z" />
<glyph unicode="O" d="M127 406v649q0 45 11 95t42.5 108.5t78.5 103.5t127 75.5t181 30.5q96 0 174 -30.5t126 -76t80.5 -103.5t45.5 -109t13 -96v-650q0 -46 -12 -97.5t-43.5 -110.5t-79 -105t-127.5 -77t-179 -31q-98 0 -177 31t-126.5 78t-79 106t-43.5 111t-12 98zM393 406 q0 -48 18.5 -82.5t48 -50.5t55.5 -22.5t52 -6.5q18 0 38 3.5t45 14.5t44 28t32 47t13 69v645q0 38 -13 67.5t-32 45.5t-44 26t-44.5 13t-38.5 3q-26 0 -52 -6t-55.5 -20.5t-48 -48t-18.5 -80.5v-645z" />
<glyph unicode="P" horiz-adv-x="1097" d="M147 0v1458h455q100 0 178 -31t122.5 -76.5t72.5 -105t37.5 -108.5t9.5 -95v-96q0 -48 -9.5 -98t-37 -109.5t-71 -105t-120 -76.5t-174.5 -31h-196v-526h-267zM414 791h186q27 0 50.5 5.5t50 20.5t42 48.5t15.5 82.5v90q0 48 -16.5 81t-43.5 48t-51.5 21t-50.5 6h-182 v-403z" />
<glyph unicode="Q" d="M127 406v649q0 45 11 95t42.5 108.5t78.5 103.5t127 75.5t181 30.5q96 0 174 -30.5t126 -76t80.5 -103.5t45.5 -109t13 -96v-650q0 -42 -10 -88t-35.5 -99.5t-63.5 -98t-101 -80t-141 -47.5v-187h-178v187q-78 12 -140.5 47.5t-100.5 80.5t-63.5 99t-35.5 101t-10 88z M393 406q0 -107 84 -144v244h178v-244q84 39 84 144v645q0 38 -13 67.5t-32 45.5t-44 26t-44.5 13t-38.5 3q-26 0 -52 -6t-55.5 -20.5t-48 -48t-18.5 -80.5v-645z" />
<glyph unicode="R" horiz-adv-x="1144" d="M147 0v1458h457q101 0 179.5 -31t123 -76t73.5 -104t38.5 -108t9.5 -95v-63q0 -45 -9.5 -92.5t-32 -102.5t-68 -104.5t-109.5 -79.5l287 -602h-299l-265 563h-118v-563h-267zM414 827h194q26 0 49 5.5t49.5 20.5t42 48.5t15.5 81.5v55q0 48 -16.5 81t-43 48t-50.5 21 t-50 6h-190v-367z" />
<glyph unicode="S" horiz-adv-x="1085" d="M88 442h264q0 -93 51.5 -145.5t131.5 -52.5q91 0 144.5 45.5t53.5 118.5q0 95 -100 153q-81 47 -314 162q-94 47 -151 141t-57 209q0 174 120 285.5t308 111.5q196 0 319 -126.5t123 -323.5h-268q0 90 -48 139t-126 49q-70 0 -116 -37.5t-46 -101.5q0 -76 82 -119 q59 -31 165.5 -83.5t137.5 -69.5q116 -63 176.5 -163.5t60.5 -230.5q0 -182 -133 -301.5t-329 -119.5q-201 0 -325 130.5t-124 329.5z" />
<glyph unicode="T" horiz-adv-x="991" d="M37 1194v264h917v-264h-325v-1194h-267v1194h-325z" />
<glyph unicode="U" d="M127 406v1052h266v-1052q0 -48 18.5 -82.5t48 -50.5t55.5 -22.5t52 -6.5q25 0 51 6.5t55 22.5t47.5 50.5t18.5 82.5v1052h267v-1055q0 -49 -11.5 -100.5t-42.5 -110.5t-78 -104.5t-126.5 -75.5t-180.5 -30t-181 30.5t-127.5 76t-78.5 105t-42 111.5t-11 101z" />
<glyph unicode="V" horiz-adv-x="1130" d="M37 1458h268l258 -1067l264 1067h267l-361 -1458h-330z" />
<glyph unicode="W" horiz-adv-x="1617" d="M37 1458h274l178 -938l222 936h194l221 -936l179 938h276l-303 -1458h-254l-213 866l-219 -866h-252z" />
<glyph unicode="X" horiz-adv-x="1130" d="M37 0l377 731l-375 727h303l221 -446l230 446h297l-377 -723l381 -735h-308l-221 449l-221 -449h-307z" />
<glyph unicode="Y" horiz-adv-x="1105" d="M37 1458h291l225 -563l227 563h289l-383 -930v-528h-266v532z" />
<glyph unicode="Z" horiz-adv-x="958" d="M45 0v209l520 985h-491v264h811v-205l-518 -989h546v-264h-868z" />
<glyph unicode="[" horiz-adv-x="671" d="M147 -152v1670h377v-213h-159v-1244h159v-213h-377z" />
<glyph unicode="\" horiz-adv-x="1046" d="M147 1505h230l522 -1607h-225z" />
<glyph unicode="]" horiz-adv-x="671" d="M147 61h160v1244h-160v213h377v-1670h-377v213z" />
<glyph unicode="^" horiz-adv-x="1093" d="M147 782l314 580h180l305 -580h-246l-151 275l-150 -275h-252z" />
<glyph unicode="_" horiz-adv-x="1030" d="M-25 -88h1080v-207h-1080v207z" />
<glyph unicode="`" horiz-adv-x="753" d="M147 1585h269l188 -391h-219z" />
<glyph unicode="a" horiz-adv-x="1175" d="M39 0l385 1458h328l385 -1458h-269l-86 334h-389l-86 -334h-268zM459 598h258l-129 510z" />
<glyph unicode="b" horiz-adv-x="1148" d="M147 0v1458h455q100 0 177.5 -30t120.5 -74t70 -102t35.5 -106t8.5 -95v-25q0 -70 -40 -148.5t-108 -123.5q77 -50 123.5 -130t46.5 -163v-47q0 -45 -10 -94.5t-39 -108.5t-74 -104t-123 -76t-178 -31h-465zM414 264h194q26 0 50 5.5t51.5 20t44 47t16.5 79.5v43 q0 48 -14.5 81.5t-38.5 49t-48 22t-51 6.5h-204v-354zM414 881h198q136 0 136 149v19q0 145 -148 145h-186v-313z" />
<glyph unicode="c" horiz-adv-x="1093" d="M127 406v649q0 45 11 95t42.5 108.5t78.5 103.5t127 75.5t181 30.5q96 0 174 -33t126 -83.5t80.5 -113.5t45.5 -119t13 -105h-267q0 59 -18.5 100t-48.5 59.5t-55 25.5t-50 7q-26 0 -52 -6t-55.5 -20.5t-48 -48t-18.5 -80.5v-645q0 -48 18.5 -82.5t48 -50.5t55.5 -22.5 t52 -6.5q19 0 38.5 4t44.5 17.5t44 34t32 57.5t13 85h267q0 -58 -12 -116.5t-43.5 -122t-79.5 -111.5t-127 -79t-179 -31q-98 0 -177 31t-126.5 78t-79 106t-43.5 111t-12 98z" />
<glyph unicode="d" horiz-adv-x="1148" d="M147 0v1458h455q100 0 178 -31t122.5 -76.5t72.5 -105t37.5 -108.5t9.5 -95v-624q0 -47 -9.5 -96.5t-37 -109t-71 -105t-120 -76.5t-174.5 -31h-463zM414 264h188q25 0 48.5 6t49 21t41 48t15.5 81v616q0 39 -11 69t-27.5 46t-39 26.5t-41.5 13.5t-39 3h-184v-930z" />
<glyph unicode="e" horiz-adv-x="1077" d="M147 0v1458h844v-264h-577v-295h534v-264h-534v-371h577v-264h-844z" />
<glyph unicode="f" horiz-adv-x="1056" d="M147 0v1458h844v-264h-577v-297h534v-264h-534v-633h-267z" />
<glyph unicode="g" d="M127 406v651q0 45 11.5 95t42.5 107.5t78.5 103t127.5 75.5t180 30q97 0 175 -31.5t126 -80.5t80.5 -111.5t45 -119t12.5 -109.5h-267q0 58 -18.5 98t-48.5 58t-55 25t-50 7q-27 0 -52.5 -5.5t-55 -19.5t-48 -46.5t-18.5 -79.5v-652q0 -48 18.5 -81.5t48 -48t55 -20 t52.5 -5.5q19 0 38.5 3t44.5 12.5t44 25.5t32 45.5t13 68.5v191h-215v264h482v-453q0 -46 -12.5 -97.5t-45 -110.5t-80.5 -105.5t-127.5 -77t-177.5 -30.5t-176.5 31t-125.5 78t-78.5 106t-43.5 111t-12 98z" />
<glyph unicode="h" horiz-adv-x="1198" d="M147 0v1458h267v-565h370v565h267v-1458h-267v629h-370v-629h-267z" />
<glyph unicode="i" horiz-adv-x="561" d="M147 0v1458h267v-1458h-267z" />
<glyph unicode="j" horiz-adv-x="964" d="M25 440h266q0 -58 12.5 -99t34.5 -60t43.5 -27t46.5 -8q24 0 45 5.5t42 20t33.5 44t12.5 71.5v807h-397v264h663v-1057q0 -199 -105 -309t-296 -110q-188 0 -294.5 125.5t-106.5 332.5z" />
<glyph unicode="k" horiz-adv-x="1136" d="M147 0v1458h267v-528l358 528h311l-462 -661l481 -797h-316l-321 561l-51 -74v-487h-267z" />
<glyph unicode="l" horiz-adv-x="1003" d="M147 0v1458h267v-1194h575v-264h-842z" />
<glyph unicode="m" horiz-adv-x="1363" d="M147 0v1458h277l256 -639l256 639h281v-1458h-265v877l-186 -465h-168l-186 467v-879h-265z" />
<glyph unicode="n" horiz-adv-x="1179" d="M147 0v1458h265l354 -844v844h266v-1458h-268l-350 827v-827h-267z" />
<glyph unicode="o" d="M127 406v649q0 45 11 95t42.5 108.5t78.5 103.5t127 75.5t181 30.5q96 0 174 -30.5t126 -76t80.5 -103.5t45.5 -109t13 -96v-650q0 -46 -12 -97.5t-43.5 -110.5t-79 -105t-127.5 -77t-179 -31q-98 0 -177 31t-126.5 78t-79 106t-43.5 111t-12 98zM393 406 q0 -48 18.5 -82.5t48 -50.5t55.5 -22.5t52 -6.5q18 0 38 3.5t45 14.5t44 28t32 47t13 69v645q0 38 -13 67.5t-32 45.5t-44 26t-44.5 13t-38.5 3q-26 0 -52 -6t-55.5 -20.5t-48 -48t-18.5 -80.5v-645z" />
<glyph unicode="p" horiz-adv-x="1097" d="M147 0v1458h455q100 0 178 -31t122.5 -76.5t72.5 -105t37.5 -108.5t9.5 -95v-96q0 -48 -9.5 -98t-37 -109.5t-71 -105t-120 -76.5t-174.5 -31h-196v-526h-267zM414 791h186q27 0 50.5 5.5t50 20.5t42 48.5t15.5 82.5v90q0 48 -16.5 81t-43.5 48t-51.5 21t-50.5 6h-182 v-403z" />
<glyph unicode="q" d="M127 406v649q0 45 11 95t42.5 108.5t78.5 103.5t127 75.5t181 30.5q96 0 174 -30.5t126 -76t80.5 -103.5t45.5 -109t13 -96v-650q0 -42 -10 -88t-35.5 -99.5t-63.5 -98t-101 -80t-141 -47.5v-187h-178v187q-78 12 -140.5 47.5t-100.5 80.5t-63.5 99t-35.5 101t-10 88z M393 406q0 -107 84 -144v244h178v-244q84 39 84 144v645q0 38 -13 67.5t-32 45.5t-44 26t-44.5 13t-38.5 3q-26 0 -52 -6t-55.5 -20.5t-48 -48t-18.5 -80.5v-645z" />
<glyph unicode="r" horiz-adv-x="1144" d="M147 0v1458h457q101 0 179.5 -31t123 -76t73.5 -104t38.5 -108t9.5 -95v-63q0 -45 -9.5 -92.5t-32 -102.5t-68 -104.5t-109.5 -79.5l287 -602h-299l-265 563h-118v-563h-267zM414 827h194q26 0 49 5.5t49.5 20.5t42 48.5t15.5 81.5v55q0 48 -16.5 81t-43 48t-50.5 21 t-50 6h-190v-367z" />
<glyph unicode="s" horiz-adv-x="1085" d="M88 442h264q0 -93 51.5 -145.5t131.5 -52.5q91 0 144.5 45.5t53.5 118.5q0 95 -100 153q-81 47 -314 162q-94 47 -151 141t-57 209q0 174 120 285.5t308 111.5q196 0 319 -126.5t123 -323.5h-268q0 90 -48 139t-126 49q-70 0 -116 -37.5t-46 -101.5q0 -76 82 -119 q59 -31 165.5 -83.5t137.5 -69.5q116 -63 176.5 -163.5t60.5 -230.5q0 -182 -133 -301.5t-329 -119.5q-201 0 -325 130.5t-124 329.5z" />
<glyph unicode="t" horiz-adv-x="991" d="M37 1194v264h917v-264h-325v-1194h-267v1194h-325z" />
<glyph unicode="u" d="M127 406v1052h266v-1052q0 -48 18.5 -82.5t48 -50.5t55.5 -22.5t52 -6.5q25 0 51 6.5t55 22.5t47.5 50.5t18.5 82.5v1052h267v-1055q0 -49 -11.5 -100.5t-42.5 -110.5t-78 -104.5t-126.5 -75.5t-180.5 -30t-181 30.5t-127.5 76t-78.5 105t-42 111.5t-11 101z" />
<glyph unicode="v" horiz-adv-x="1130" d="M37 1458h268l258 -1067l264 1067h267l-361 -1458h-330z" />
<glyph unicode="w" horiz-adv-x="1617" d="M37 1458h274l178 -938l222 936h194l221 -936l179 938h276l-303 -1458h-254l-213 866l-219 -866h-252z" />
<glyph unicode="x" horiz-adv-x="1130" d="M37 0l377 731l-375 727h303l221 -446l230 446h297l-377 -723l381 -735h-308l-221 449l-221 -449h-307z" />
<glyph unicode="y" horiz-adv-x="1105" d="M37 1458h291l225 -563l227 563h289l-383 -930v-528h-266v532z" />
<glyph unicode="z" horiz-adv-x="958" d="M45 0v209l520 985h-491v264h811v-205l-518 -989h546v-264h-868z" />
<glyph unicode="{" horiz-adv-x="669" d="M147 139v1114q0 134 66 200.5t203 66.5h106v-215h-98h-27.5t-17 -2t-11 -3.5t-4 -8.5t-1.5 -12t1.5 -19.5t0.5 -26.5v-1081q0 -15 -2 -36q-1 -23 4 -26.5t40 -3.5h17h98v-215h-106q-269 0 -269 268z" />
<glyph unicode="|" horiz-adv-x="512" d="M147 -102v1611h218v-1611h-218z" />
<glyph unicode="}" horiz-adv-x="675" d="M147 86h113q47 0 47 -2q4 4 4 66v1085q0 60 -4 68h-160v215h111q270 0 270 -265v-1116q0 -136 -63 -201t-207 -65h-111v215z" />
<glyph unicode="~" horiz-adv-x="1146" d="M147 530q102 102 161 136t124 34q51 0 141 -43t140 -43q18 0 41.5 16.5t79.5 71.5l165 -127q-110 -103 -167.5 -136t-122.5 -33q-52 0 -143 41.5t-138 41.5q-22 0 -45.5 -16t-77.5 -72z" />
<glyph unicode="&#xa1;" horiz-adv-x="608" d="M147 786v316h314v-316h-314zM176 -358v1017h256v-1017h-256z" />
<glyph unicode="&#xa2;" horiz-adv-x="1038" d="M127 381v311q0 152 81 253.5t222 131.5v264h215v-264q137 -34 216.5 -144.5t88.5 -283.5h-225q0 217 -186 217q-87 0 -137 -45.5t-50 -128.5v-311q0 -33 8.5 -62t27.5 -56.5t58 -43.5t93 -16q84 0 135 53.5t51 161.5h225q-10 -176 -90.5 -288t-214.5 -138v-264h-215v264 q-141 28 -222 130t-81 259z" />
<glyph unicode="&#xa3;" horiz-adv-x="1060" d="M88 623v264h68v174q0 180 110.5 292.5t292.5 112.5q183 0 298.5 -124.5t115.5 -321.5h-266q0 55 -15 93.5t-39 56.5t-47 25t-47 7t-46 -6t-43.5 -20t-34.5 -43t-13 -70v-176h387v-264h-387v-359h549v-264h-815v623h-68z" />
<glyph unicode="&#xa5;" horiz-adv-x="1155" d="M68 1458h282l225 -563l230 563h282l-301 -735h183v-211h-258v-106h258v-211h-258v-195h-262v195h-263v211h263v106h-263v211h181z" />
<glyph unicode="&#xa6;" horiz-adv-x="503" d="M139 -51v684h226v-684h-226zM139 774v682h226v-682h-226z" />
<glyph unicode="&#xa7;" horiz-adv-x="1126" d="M147 362h228q0 -73 48.5 -114t131.5 -41q190 0 190 127q0 29 -21 49.5t-50 28.5h2q-161 40 -285 63q-100 18 -164.5 95t-64.5 188q0 116 47 182q-35 81 -35 143q0 85 31.5 150.5t86.5 103.5t122.5 57t146.5 19q182 0 293 -99.5t111 -277.5h-224q0 72 -47 113t-137 41 q-68 0 -116 -25t-48 -82q0 -21 18.5 -40t45.5 -27q68 -19 276 -60q108 -22 177 -101.5t69 -192.5q0 -107 -45 -181q31 -49 31 -147q0 -75 -22 -134.5t-59.5 -99.5t-90 -66.5t-111.5 -38t-127 -11.5q-182 0 -295 100.5t-113 277.5zM389 803q-15 -36 1 -70t56 -43l310 -67 q12 39 -8 73t-62 43z" />
<glyph unicode="&#xa8;" horiz-adv-x="937" d="M125 1223v288h258v-288h-258zM555 1223v288h258v-288h-258z" />
<glyph unicode="&#xa9;" horiz-adv-x="1722" d="M150 705q0 197 94 363.5t258 264t360 97.5q147 0 279.5 -57.5t227 -155t150.5 -231.5t56 -281t-56 -281t-150.5 -231.5t-227 -155t-279.5 -57.5q-196 0 -360 97.5t-258 264t-94 363.5zM340 705q0 -148 66.5 -272.5t186 -197.5t265.5 -73q147 0 268 73t189.5 197.5 t68.5 272.5t-68.5 272t-189.5 197t-268 73q-146 0 -265.5 -73t-186 -197t-66.5 -272zM600 522v363q0 27 5.5 56t22.5 64t43 61.5t72 45t105 18.5q60 0 106 -18.5t72.5 -45.5t43.5 -62.5t22.5 -64.5t5.5 -56h-176q0 73 -74 73q-28 0 -50 -15.5t-22 -57.5v-361q0 -42 22.5 -59 t49.5 -17q28 0 51 16t23 60h176q0 -28 -5.5 -57t-23 -65t-44 -63.5t-73.5 -46t-108 -18.5q-58 0 -103.5 18.5t-71 46t-42 63.5t-22 65t-5.5 57z" />
<glyph unicode="&#xaa;" horiz-adv-x="823" d="M121 915q0 107 72.5 166.5t185.5 59.5h147v26q0 88 -100 88q-29 0 -54.5 -17.5t-39.5 -51.5h-174q17 80 64 135t98.5 76.5t103.5 21.5t97.5 -13t85 -41t62.5 -78t23 -118v-489h-162l-4 22q-79 -34 -139 -34q-111 0 -188.5 62t-77.5 185zM287 915q0 -84 110 -84 q51 0 90 29.5t39 79.5v41h-147q-40 0 -66 -17t-26 -49z" />
<glyph unicode="&#xab;" horiz-adv-x="1050" d="M45 537l475 477v-301l-172 -176l172 -172v-302zM451 537l473 477v-303l-172 -174l172 -170v-301z" />
<glyph unicode="&#xac;" horiz-adv-x="1136" d="M139 627v219h858v-529h-225v310h-633z" />
<glyph unicode="&#xad;" horiz-adv-x="1206" d="M164 465v217h878v-217h-878z" />
<glyph unicode="&#xae;" horiz-adv-x="1722" d="M150 705q0 197 94 363.5t258 264t360 97.5q147 0 279.5 -57.5t227 -155t150.5 -231.5t56 -281t-56 -281t-150.5 -231.5t-227 -155t-279.5 -57.5q-196 0 -360 97.5t-258 264t-94 363.5zM340 705q0 -148 66.5 -272.5t186 -197.5t265.5 -73q147 0 268 73t189.5 197.5 t68.5 272.5t-68.5 272t-189.5 197t-268 73q-146 0 -265.5 -73t-186 -197t-66.5 -272zM625 276v836h266q60 0 106 -18t72 -45t42.5 -62t22 -63.5t5.5 -55.5v-45q0 -27 -6 -56t-21 -63t-45.5 -63.5t-73.5 -46.5l160 -318h-197l-151 302h-6v-302h-174zM799 750h94q28 0 50 15.5 t22 57.5v41q0 41 -22.5 57.5t-51.5 16.5h-92v-188z" />
<glyph unicode="&#xaf;" horiz-adv-x="952" d="M147 1257v193h658v-193h-658z" />
<glyph unicode="&#xb0;" horiz-adv-x="686" d="M78 1180q0 110 77.5 188t186.5 78q112 0 189 -77t77 -189q0 -109 -77.5 -188t-188.5 -79q-108 0 -186 79.5t-78 187.5zM262 1180q0 -34 23 -58t57 -24q35 0 58.5 24t23.5 58t-23.5 58t-58.5 24q-34 0 -57 -24t-23 -58z" />
<glyph unicode="&#xb1;" horiz-adv-x="1142" d="M139 0v215h865v-215h-865zM139 467v215h324v293h217v-293h324v-215h-324v-184h-217v184h-324z" />
<glyph unicode="&#xb2;" horiz-adv-x="755" d="M139 678v178q0 104 109 191q16 12 74.5 45t93.5 63t35 59q0 32 -19 50t-51 18q-31 0 -51.5 -31.5t-20.5 -87.5h-170q0 126 68.5 207.5t173.5 81.5t170 -65t65 -170q0 -33 -6 -61t-21.5 -52t-27.5 -39.5t-39.5 -36t-40.5 -29.5t-47 -30q-6 -4 -32 -19.5t-36 -22.5t-27 -21 t-23.5 -27.5t-6.5 -28.5v-2h305v-170h-475z" />
<glyph unicode="&#xb3;" horiz-adv-x="751" d="M139 936h170q0 -54 21 -75t47 -21q67 0 67 59v47q0 23 -13.5 37t-26.5 17.5t-27 3.5h-90v118l96 150h-213v170h430v-137l-104 -154q118 -56 118 -205v-47q0 -32 -11.5 -68.5t-36.5 -75t-73.5 -63t-113.5 -24.5q-64 0 -113 25.5t-75 66.5t-39 85.5t-13 90.5z" />
<glyph unicode="&#xb4;" horiz-adv-x="751" d="M147 1194l189 391h268l-237 -391h-220z" />
<glyph unicode="&#xb5;" horiz-adv-x="1363" d="M147 0v1458h277l256 -639l256 639h281v-1458h-265v877l-186 -465h-168l-186 467v-879h-265z" />
<glyph unicode="&#xb6;" horiz-adv-x="1161" d="M0 1057q0 180 100.5 269t286.5 89h569v-1415h-223v1194h-182v-1194h-225v721q-148 15 -237 109t-89 227z" />
<glyph unicode="&#xb7;" horiz-adv-x="577" d="M147 399v287h283v-287h-283z" />
<glyph unicode="&#xb8;" horiz-adv-x="698" d="M129 -453l219 365h221l-186 -365h-254z" />
<glyph unicode="&#xb9;" horiz-adv-x="720" d="M139 678v168h135v424l-100 -13v168l268 27v-606h140v-168h-443z" />
<glyph unicode="&#xba;" horiz-adv-x="845" d="M139 938v207q0 124 78 198t205 74q129 0 207 -73.5t78 -198.5v-207q0 -126 -79 -201t-206 -75q-130 0 -206.5 74t-76.5 202zM309 936q0 -45 26 -77t89 -32q53 0 83 28.5t30 80.5v209q0 44 -25.5 75t-87.5 31q-54 0 -84.5 -27.5t-30.5 -78.5v-209z" />
<glyph unicode="&#xbb;" horiz-adv-x="1050" d="M127 68v299l174 172l-174 174v303l473 -477zM532 68v299l175 172l-175 174v303l474 -477z" />
<glyph unicode="&#xbc;" horiz-adv-x="1519" d="M139 678v168h135v424l-100 -13v168l270 27v-606h138v-168h-443zM414 -102l534 1636h182l-534 -1636h-182zM920 186v125l170 455h170l-150 -410h102v187h168v-543h-168v186h-292z" />
<glyph unicode="&#xbd;" horiz-adv-x="1583" d="M139 678v168h135v424l-98 -10v165l266 27v-606h142v-168h-445zM412 -102l534 1636h182l-532 -1636h-184zM965 0v176q0 109 106 193q16 13 72.5 43t93.5 61t37 64q0 65 -70 65q-29 0 -48 -31t-19 -86h-172q0 125 68 206t171 81q106 0 173 -65t67 -170t-84 -179 q-18 -16 -79 -50.5t-102.5 -68.5t-41.5 -69h305v-170h-477z" />
<glyph unicode="&#xbe;" horiz-adv-x="1540" d="M139 936h170q0 -54 21 -75t47 -21q67 0 67 59v47q0 23 -13.5 37t-26.5 17.5t-27 3.5h-90v118l96 150h-213v170h430v-137l-104 -154q118 -56 118 -205v-47q0 -32 -11.5 -68.5t-36.5 -75t-73.5 -63t-113.5 -24.5q-64 0 -113 25.5t-75 66.5t-39 85.5t-13 90.5zM432 -102 l539 1636h176l-531 -1636h-184zM938 186v125l170 455h172l-152 -410h103v187h170v-543h-170v186h-293z" />
<glyph unicode="&#xbf;" horiz-adv-x="886" d="M35 6q0 114 57.5 201.5t151.5 163.5q7 6 29 22.5t30.5 23.5t24.5 24t22.5 31.5t12.5 36.5t6 48v53h266v-47q0 -83 -27.5 -156t-68.5 -120q-20 -23 -65.5 -58t-80.5 -62t-63.5 -70t-28.5 -89q0 -79 41.5 -120.5t118.5 -41.5q20 0 39 4.5t42 19.5t40.5 38.5t30.5 66.5 t16 99h264q0 -46 -8.5 -95.5t-27 -106.5t-52.5 -107t-79.5 -91.5t-114 -65.5t-150.5 -24q-189 0 -307.5 117.5t-118.5 304.5zM342 737v316h313v-316h-313z" />
<glyph unicode="&#xc0;" horiz-adv-x="1175" d="M39 0l385 1458h328l385 -1458h-269l-86 334h-389l-86 -334h-268zM274 1989h269l188 -392h-219zM459 598h258l-129 510z" />
<glyph unicode="&#xc1;" horiz-adv-x="1175" d="M39 0l385 1458h328l385 -1458h-269l-86 334h-389l-86 -334h-268zM446 1597l189 392h268l-237 -392h-220zM459 598h258l-129 510z" />
<glyph unicode="&#xc2;" horiz-adv-x="1175" d="M39 0l385 1458h328l385 -1458h-269l-86 334h-389l-86 -334h-268zM256 1597l242 351h172l248 -351h-220l-112 136l-115 -136h-215zM459 598h258l-129 510z" />
<glyph unicode="&#xc3;" horiz-adv-x="1175" d="M39 0l385 1458h328l385 -1458h-269l-86 334h-389l-86 -334h-268zM223 1743q81 88 139.5 117.5t108.5 29.5q45 0 125 -40t106 -40q45 0 111 74l141 -141q-82 -87 -138.5 -116.5t-110.5 -29.5q-46 0 -125.5 40t-106.5 40q-26 0 -47.5 -16.5t-58.5 -56.5zM459 598h258 l-129 510z" />
<glyph unicode="&#xc4;" horiz-adv-x="1175" d="M39 0l385 1458h328l385 -1458h-269l-86 334h-389l-86 -334h-268zM244 1597v289h258v-289h-258zM459 598h258l-129 510zM674 1597v289h258v-289h-258z" />
<glyph unicode="&#xc5;" horiz-adv-x="1175" d="M39 0l385 1458h328l385 -1458h-269l-86 334h-389l-86 -334h-268zM346 1751q0 101 71.5 171.5t170.5 70.5q103 0 173 -69.5t70 -172.5q0 -98 -71 -170t-172 -72q-98 0 -170 72.5t-72 169.5zM459 598h258l-129 510zM506 1751q0 -35 24.5 -59.5t59.5 -24.5t59.5 24.5 t24.5 59.5t-24.5 59.5t-59.5 24.5t-59.5 -24.5t-24.5 -59.5z" />
<glyph unicode="&#xc6;" horiz-adv-x="1605" d="M39 0l381 1458h1100v-264h-580v-295h533v-264h-533v-371h580v-264h-846v332h-277l-88 -332h-270zM463 596h211v598h-51z" />
<glyph unicode="&#xc7;" horiz-adv-x="1093" d="M127 406v649q0 45 11 95t42.5 108.5t78.5 103.5t127 75.5t181 30.5q96 0 174 -33t126 -83.5t80.5 -113.5t45.5 -119t13 -105h-267q0 59 -18.5 100t-48.5 59.5t-55 25.5t-50 7q-26 0 -52 -6t-55.5 -20.5t-48 -48t-18.5 -80.5v-645q0 -48 18.5 -82.5t48 -50.5t55.5 -22.5 t52 -6.5q19 0 38.5 4t44.5 17.5t44 34t32 57.5t13 85h267q0 -58 -12 -116.5t-43.5 -122t-79.5 -111.5t-127 -79t-179 -31q-98 0 -177 31t-126.5 78t-79 106t-43.5 111t-12 98zM236 -453l219 365h221l-187 -365h-253z" />
<glyph unicode="&#xc8;" horiz-adv-x="1077" d="M147 0v1458h844v-264h-577v-295h534v-264h-534v-371h577v-264h-844zM287 1989h268l188 -392h-219z" />
<glyph unicode="&#xc9;" horiz-adv-x="1077" d="M147 0v1458h844v-264h-577v-295h534v-264h-534v-371h577v-264h-844zM401 1597l189 392h268l-237 -392h-220z" />
<glyph unicode="&#xca;" horiz-adv-x="1077" d="M147 0v1458h844v-264h-577v-295h534v-264h-534v-371h577v-264h-844zM240 1597l241 351h172l248 -351h-219l-113 136l-114 -136h-215z" />
<glyph unicode="&#xcb;" horiz-adv-x="1077" d="M147 0v1458h844v-264h-577v-295h534v-264h-534v-371h577v-264h-844zM221 1597v289h258v-289h-258zM651 1597v289h258v-289h-258z" />
<glyph unicode="&#xcc;" horiz-adv-x="561" d="M-68 1989h269l188 -392h-219zM147 0v1458h267v-1458h-267z" />
<glyph unicode="&#xcd;" horiz-adv-x="563" d="M147 0v1458h267v-1458h-267zM170 1597l188 392h269l-238 -392h-219z" />
<glyph unicode="&#xce;" horiz-adv-x="563" d="M-49 1597l242 351h172l247 -351h-219l-112 136l-115 -136h-215zM150 0v1458h266v-1458h-266z" />
<glyph unicode="&#xcf;" horiz-adv-x="561" d="M-68 1597v289h258v-289h-258zM147 0v1458h267v-1458h-267zM362 1597v289h259v-289h-259z" />
<glyph unicode="&#xd0;" horiz-adv-x="1261" d="M139 612v256h105v590h458q100 0 177.5 -31t122 -76.5t73 -105t38 -108.5t9.5 -95v-624q0 -47 -9 -96.5t-37 -109t-71.5 -105t-120 -76.5t-175.5 -31h-465v612h-105zM510 264h195q25 0 47.5 6t48 21t40.5 48t15 81v616q0 48 -16 82t-42 49t-49 21t-47 6h-192v-326h209 v-256h-209v-348z" />
<glyph unicode="&#xd1;" horiz-adv-x="1179" d="M147 0v1458h265l354 -844v844h266v-1458h-268l-350 827v-827h-267zM236 1743q82 88 139.5 117.5t107.5 29.5q45 0 125.5 -40t106.5 -40q44 0 110 74l142 -141q-82 -86 -139 -116t-111 -30q-46 0 -125.5 40t-106.5 40q-26 0 -47.5 -16.5t-58.5 -56.5z" />
<glyph unicode="&#xd2;" d="M127 406v649q0 45 11 95t42.5 108.5t78.5 103.5t127 75.5t181 30.5q96 0 174 -30.5t126 -76t80.5 -103.5t45.5 -109t13 -96v-650q0 -46 -12 -97.5t-43.5 -110.5t-79 -105t-127.5 -77t-179 -31q-98 0 -177 31t-126.5 78t-79 106t-43.5 111t-12 98zM260 1989h268l189 -392 h-219zM393 406q0 -48 18.5 -82.5t48 -50.5t55.5 -22.5t52 -6.5q18 0 38 3.5t45 14.5t44 28t32 47t13 69v645q0 38 -13 67.5t-32 45.5t-44 26t-44.5 13t-38.5 3q-26 0 -52 -6t-55.5 -20.5t-48 -48t-18.5 -80.5v-645z" />
<glyph unicode="&#xd3;" d="M127 406v649q0 45 11 95t42.5 108.5t78.5 103.5t127 75.5t181 30.5q96 0 174 -30.5t126 -76t80.5 -103.5t45.5 -109t13 -96v-650q0 -46 -12 -97.5t-43.5 -110.5t-79 -105t-127.5 -77t-179 -31q-98 0 -177 31t-126.5 78t-79 106t-43.5 111t-12 98zM393 406 q0 -48 18.5 -82.5t48 -50.5t55.5 -22.5t52 -6.5q18 0 38 3.5t45 14.5t44 28t32 47t13 69v645q0 38 -13 67.5t-32 45.5t-44 26t-44.5 13t-38.5 3q-26 0 -52 -6t-55.5 -20.5t-48 -48t-18.5 -80.5v-645zM412 1597l188 392h268l-237 -392h-219z" />
<glyph unicode="&#xd4;" d="M127 406v649q0 45 11 95t42.5 108.5t78.5 103.5t127 75.5t181 30.5q96 0 174 -30.5t126 -76t80.5 -103.5t45.5 -109t13 -96v-650q0 -46 -12 -97.5t-43.5 -110.5t-79 -105t-127.5 -77t-179 -31q-98 0 -177 31t-126.5 78t-79 106t-43.5 111t-12 98zM236 1597l241 351h172 l248 -351h-219l-113 136l-114 -136h-215zM393 406q0 -48 18.5 -82.5t48 -50.5t55.5 -22.5t52 -6.5q18 0 38 3.5t45 14.5t44 28t32 47t13 69v645q0 38 -13 67.5t-32 45.5t-44 26t-44.5 13t-38.5 3q-26 0 -52 -6t-55.5 -20.5t-48 -48t-18.5 -80.5v-645z" />
<glyph unicode="&#xd5;" d="M127 406v649q0 45 11 95t42.5 108.5t78.5 103.5t127 75.5t181 30.5q96 0 174 -30.5t126 -76t80.5 -103.5t45.5 -109t13 -96v-650q0 -46 -12 -97.5t-43.5 -110.5t-79 -105t-127.5 -77t-179 -31q-98 0 -177 31t-126.5 78t-79 106t-43.5 111t-12 98zM201 1743 q81 88 139.5 117.5t108.5 29.5q45 0 125 -40t106 -40q45 0 111 74l141 -141q-82 -86 -139 -116t-111 -30q-46 0 -125 40t-106 40q-26 0 -48 -16.5t-59 -56.5zM393 406q0 -48 18.5 -82.5t48 -50.5t55.5 -22.5t52 -6.5q18 0 38 3.5t45 14.5t44 28t32 47t13 69v645 q0 38 -13 67.5t-32 45.5t-44 26t-44.5 13t-38.5 3q-26 0 -52 -6t-55.5 -20.5t-48 -48t-18.5 -80.5v-645z" />
<glyph unicode="&#xd6;" d="M127 406v649q0 45 11 95t42.5 108.5t78.5 103.5t127 75.5t181 30.5q96 0 174 -30.5t126 -76t80.5 -103.5t45.5 -109t13 -96v-650q0 -46 -12 -97.5t-43.5 -110.5t-79 -105t-127.5 -77t-179 -31q-98 0 -177 31t-126.5 78t-79 106t-43.5 111t-12 98zM221 1597v289h258v-289 h-258zM393 406q0 -48 18.5 -82.5t48 -50.5t55.5 -22.5t52 -6.5q18 0 38 3.5t45 14.5t44 28t32 47t13 69v645q0 38 -13 67.5t-32 45.5t-44 26t-44.5 13t-38.5 3q-26 0 -52 -6t-55.5 -20.5t-48 -48t-18.5 -80.5v-645zM651 1597v289h258v-289h-258z" />
<glyph unicode="&#xd7;" horiz-adv-x="1200" d="M207 303l244 244l-244 246l149 149l242 -246l244 246l149 -149l-243 -246l245 -246l-151 -145l-244 241l-242 -241z" />
<glyph unicode="&#xd8;" d="M127 406v651q0 45 11.5 95t42.5 107.5t78.5 103t127.5 75.5t180 30q92 0 168 -28l41 123h146l-64 -193q75 -65 111.5 -153t36.5 -162v-652q0 -46 -12 -97.5t-43.5 -110.5t-79 -105t-127.5 -77t-179 -31q-82 0 -159 24l-35 -104h-150l58 174q-78 64 -115 157t-37 173z M393 408l260 780q-41 16 -84 16q-27 0 -52.5 -5.5t-56 -20t-49 -47.5t-18.5 -80v-643zM492 258q35 -12 77 -12q25 0 50 6t54 21t47.5 48.5t18.5 81.5v601z" />
<glyph unicode="&#xd9;" d="M127 406v1052h266v-1052q0 -48 18.5 -82.5t48 -50.5t55.5 -22.5t52 -6.5q25 0 51 6.5t55 22.5t47.5 50.5t18.5 82.5v1052h267v-1055q0 -49 -11.5 -100.5t-42.5 -110.5t-78 -104.5t-126.5 -75.5t-180.5 -30t-181 30.5t-127.5 76t-78.5 105t-42 111.5t-11 101zM274 1989 h269l188 -392h-219z" />
<glyph unicode="&#xda;" d="M127 406v1052h266v-1052q0 -48 18.5 -82.5t48 -50.5t55.5 -22.5t52 -6.5q25 0 51 6.5t55 22.5t47.5 50.5t18.5 82.5v1052h267v-1055q0 -49 -11.5 -100.5t-42.5 -110.5t-78 -104.5t-126.5 -75.5t-180.5 -30t-181 30.5t-127.5 76t-78.5 105t-42 111.5t-11 101zM383 1597 l188 392h269l-238 -392h-219z" />
<glyph unicode="&#xdb;" d="M127 406v1052h266v-1052q0 -48 18.5 -82.5t48 -50.5t55.5 -22.5t52 -6.5q25 0 51 6.5t55 22.5t47.5 50.5t18.5 82.5v1052h267v-1055q0 -49 -11.5 -100.5t-42.5 -110.5t-78 -104.5t-126.5 -75.5t-180.5 -30t-181 30.5t-127.5 76t-78.5 105t-42 111.5t-11 101zM236 1597 l241 351h172l248 -351h-219l-113 136l-114 -136h-215z" />
<glyph unicode="&#xdc;" d="M127 406v1052h266v-1052q0 -48 18.5 -82.5t48 -50.5t55.5 -22.5t52 -6.5q25 0 51 6.5t55 22.5t47.5 50.5t18.5 82.5v1052h267v-1055q0 -49 -11.5 -100.5t-42.5 -110.5t-78 -104.5t-126.5 -75.5t-180.5 -30t-181 30.5t-127.5 76t-78.5 105t-42 111.5t-11 101zM221 1597 v289h258v-289h-258zM651 1597v289h258v-289h-258z" />
<glyph unicode="&#xdd;" horiz-adv-x="1105" d="M37 1458h291l225 -563l227 563h289l-383 -930v-528h-266v532zM346 1597l189 392h268l-238 -392h-219z" />
<glyph unicode="&#xde;" horiz-adv-x="1177" d="M147 0v1458h265v-293h229q190 0 305 -118t115 -312q0 -197 -114 -315.5t-306 -118.5h-229v-301h-265zM412 563h227q31 0 57 7.5t50.5 25.5t38.5 53.5t14 85.5q0 79 -42.5 123.5t-117.5 44.5h-227v-340z" />
<glyph unicode="&#xdf;" horiz-adv-x="2177" d="M88 442h264q0 -92 52 -144t133 -52q94 0 145 44.5t51 117.5q0 96 -98 153q-43 26 -316 164q-92 45 -151 140t-59 208q0 175 120.5 286t309.5 111q195 0 318.5 -127t123.5 -323h-268q0 88 -48.5 137t-125.5 49q-71 0 -118.5 -36t-47.5 -101q0 -73 88 -119 q297 -152 299 -153q116 -63 176.5 -163.5t60.5 -230.5q0 -182 -132 -301.5t-328 -119.5q-201 0 -325 130.5t-124 329.5zM1180 442h264q0 -92 51.5 -144t132.5 -52q94 0 145.5 44.5t51.5 117.5q0 96 -99 153q-49 29 -315 164q-92 46 -151.5 140.5t-59.5 207.5 q0 175 120.5 286t309.5 111q195 0 319 -127t124 -323h-269q0 88 -48.5 137t-125.5 49q-71 0 -118.5 -36t-47.5 -101q0 -73 88 -119q297 -152 299 -153q117 -63 177.5 -164t60.5 -230q0 -182 -132.5 -301.5t-328.5 -119.5q-201 0 -324.5 130t-123.5 330z" />
<glyph unicode="&#xe0;" horiz-adv-x="1175" d="M39 0l385 1458h328l385 -1458h-269l-86 334h-389l-86 -334h-268zM274 1989h269l188 -392h-219zM459 598h258l-129 510z" />
<glyph unicode="&#xe1;" horiz-adv-x="1175" d="M39 0l385 1458h328l385 -1458h-269l-86 334h-389l-86 -334h-268zM446 1597l189 392h268l-237 -392h-220zM459 598h258l-129 510z" />
<glyph unicode="&#xe2;" horiz-adv-x="1175" d="M39 0l385 1458h328l385 -1458h-269l-86 334h-389l-86 -334h-268zM256 1597l242 351h172l248 -351h-220l-112 136l-115 -136h-215zM459 598h258l-129 510z" />
<glyph unicode="&#xe3;" horiz-adv-x="1175" d="M39 0l385 1458h328l385 -1458h-269l-86 334h-389l-86 -334h-268zM223 1743q81 88 139.5 117.5t108.5 29.5q45 0 125 -40t106 -40q45 0 111 74l141 -141q-82 -87 -138.5 -116.5t-110.5 -29.5q-46 0 -125.5 40t-106.5 40q-26 0 -47.5 -16.5t-58.5 -56.5zM459 598h258 l-129 510z" />
<glyph unicode="&#xe4;" horiz-adv-x="1175" d="M39 0l385 1458h328l385 -1458h-269l-86 334h-389l-86 -334h-268zM244 1597v289h258v-289h-258zM459 598h258l-129 510zM674 1597v289h258v-289h-258z" />
<glyph unicode="&#xe5;" horiz-adv-x="1175" d="M39 0l385 1458h328l385 -1458h-269l-86 334h-389l-86 -334h-268zM346 1751q0 101 71.5 171.5t170.5 70.5q103 0 173 -69.5t70 -172.5q0 -98 -71 -170t-172 -72q-98 0 -170 72.5t-72 169.5zM459 598h258l-129 510zM506 1751q0 -35 24.5 -59.5t59.5 -24.5t59.5 24.5 t24.5 59.5t-24.5 59.5t-59.5 24.5t-59.5 -24.5t-24.5 -59.5z" />
<glyph unicode="&#xe6;" horiz-adv-x="1605" d="M39 0l381 1458h1100v-264h-580v-295h533v-264h-533v-371h580v-264h-846v332h-277l-88 -332h-270zM463 596h211v598h-51z" />
<glyph unicode="&#xe7;" horiz-adv-x="1093" d="M127 406v649q0 45 11 95t42.5 108.5t78.5 103.5t127 75.5t181 30.5q96 0 174 -33t126 -83.5t80.5 -113.5t45.5 -119t13 -105h-267q0 59 -18.5 100t-48.5 59.5t-55 25.5t-50 7q-26 0 -52 -6t-55.5 -20.5t-48 -48t-18.5 -80.5v-645q0 -48 18.5 -82.5t48 -50.5t55.5 -22.5 t52 -6.5q19 0 38.5 4t44.5 17.5t44 34t32 57.5t13 85h267q0 -58 -12 -116.5t-43.5 -122t-79.5 -111.5t-127 -79t-179 -31q-98 0 -177 31t-126.5 78t-79 106t-43.5 111t-12 98zM236 -453l219 365h221l-187 -365h-253z" />
<glyph unicode="&#xe8;" horiz-adv-x="1077" d="M147 0v1458h844v-264h-577v-295h534v-264h-534v-371h577v-264h-844zM287 1989h268l188 -392h-219z" />
<glyph unicode="&#xe9;" horiz-adv-x="1077" d="M147 0v1458h844v-264h-577v-295h534v-264h-534v-371h577v-264h-844zM401 1597l189 392h268l-237 -392h-220z" />
<glyph unicode="&#xea;" horiz-adv-x="1077" d="M147 0v1458h844v-264h-577v-295h534v-264h-534v-371h577v-264h-844zM240 1597l241 351h172l248 -351h-219l-113 136l-114 -136h-215z" />
<glyph unicode="&#xeb;" horiz-adv-x="1077" d="M147 0v1458h844v-264h-577v-295h534v-264h-534v-371h577v-264h-844zM221 1597v289h258v-289h-258zM651 1597v289h258v-289h-258z" />
<glyph unicode="&#xec;" horiz-adv-x="563" d="M-68 1989h269l188 -392h-219zM147 0v1458h267v-1458h-267z" />
<glyph unicode="&#xed;" horiz-adv-x="563" d="M147 0v1458h267v-1458h-267zM170 1597l188 392h269l-238 -392h-219z" />
<glyph unicode="&#xee;" horiz-adv-x="563" d="M-49 1597l242 351h172l247 -351h-219l-112 136l-115 -136h-215zM147 0v1458h267v-1458h-267z" />
<glyph unicode="&#xef;" horiz-adv-x="563" d="M-68 1597v289h258v-289h-258zM147 0v1458h267v-1458h-267zM362 1597v289h259v-289h-259z" />
<glyph unicode="&#xf0;" horiz-adv-x="1261" d="M139 612v256h105v590h458q100 0 177.5 -31t122 -76.5t73 -105t38 -108.5t9.5 -95v-624q0 -47 -9 -96.5t-37 -109t-71.5 -105t-120 -76.5t-175.5 -31h-465v612h-105zM510 264h195q25 0 47.5 6t48 21t40.5 48t15 81v616q0 48 -16 82t-42 49t-49 21t-47 6h-192v-326h209 v-256h-209v-348z" />
<glyph unicode="&#xf1;" horiz-adv-x="1179" d="M147 0v1458h265l354 -844v844h266v-1458h-268l-350 827v-827h-267zM236 1743q82 88 139.5 117.5t107.5 29.5q45 0 125.5 -40t106.5 -40q44 0 110 74l142 -141q-82 -86 -139 -116t-111 -30q-46 0 -125.5 40t-106.5 40q-26 0 -47.5 -16.5t-58.5 -56.5z" />
<glyph unicode="&#xf2;" d="M127 406v649q0 45 11 95t42.5 108.5t78.5 103.5t127 75.5t181 30.5q96 0 174 -30.5t126 -76t80.5 -103.5t45.5 -109t13 -96v-650q0 -46 -12 -97.5t-43.5 -110.5t-79 -105t-127.5 -77t-179 -31q-98 0 -177 31t-126.5 78t-79 106t-43.5 111t-12 98zM260 1989h268l189 -392 h-219zM393 406q0 -48 18.5 -82.5t48 -50.5t55.5 -22.5t52 -6.5q18 0 38 3.5t45 14.5t44 28t32 47t13 69v645q0 38 -13 67.5t-32 45.5t-44 26t-44.5 13t-38.5 3q-26 0 -52 -6t-55.5 -20.5t-48 -48t-18.5 -80.5v-645z" />
<glyph unicode="&#xf3;" d="M127 406v649q0 45 11 95t42.5 108.5t78.5 103.5t127 75.5t181 30.5q96 0 174 -30.5t126 -76t80.5 -103.5t45.5 -109t13 -96v-650q0 -46 -12 -97.5t-43.5 -110.5t-79 -105t-127.5 -77t-179 -31q-98 0 -177 31t-126.5 78t-79 106t-43.5 111t-12 98zM393 406 q0 -48 18.5 -82.5t48 -50.5t55.5 -22.5t52 -6.5q18 0 38 3.5t45 14.5t44 28t32 47t13 69v645q0 38 -13 67.5t-32 45.5t-44 26t-44.5 13t-38.5 3q-26 0 -52 -6t-55.5 -20.5t-48 -48t-18.5 -80.5v-645zM412 1597l188 392h268l-237 -392h-219z" />
<glyph unicode="&#xf4;" d="M127 406v649q0 45 11 95t42.5 108.5t78.5 103.5t127 75.5t181 30.5q96 0 174 -30.5t126 -76t80.5 -103.5t45.5 -109t13 -96v-650q0 -46 -12 -97.5t-43.5 -110.5t-79 -105t-127.5 -77t-179 -31q-98 0 -177 31t-126.5 78t-79 106t-43.5 111t-12 98zM236 1597l241 351h172 l248 -351h-219l-113 136l-114 -136h-215zM393 406q0 -48 18.5 -82.5t48 -50.5t55.5 -22.5t52 -6.5q18 0 38 3.5t45 14.5t44 28t32 47t13 69v645q0 38 -13 67.5t-32 45.5t-44 26t-44.5 13t-38.5 3q-26 0 -52 -6t-55.5 -20.5t-48 -48t-18.5 -80.5v-645z" />
<glyph unicode="&#xf5;" d="M127 406v649q0 45 11 95t42.5 108.5t78.5 103.5t127 75.5t181 30.5q96 0 174 -30.5t126 -76t80.5 -103.5t45.5 -109t13 -96v-650q0 -46 -12 -97.5t-43.5 -110.5t-79 -105t-127.5 -77t-179 -31q-98 0 -177 31t-126.5 78t-79 106t-43.5 111t-12 98zM201 1743 q81 88 139.5 117.5t108.5 29.5q45 0 125 -40t106 -40q45 0 111 74l141 -141q-82 -86 -139 -116t-111 -30q-46 0 -125 40t-106 40q-26 0 -48 -16.5t-59 -56.5zM393 406q0 -48 18.5 -82.5t48 -50.5t55.5 -22.5t52 -6.5q18 0 38 3.5t45 14.5t44 28t32 47t13 69v645 q0 38 -13 67.5t-32 45.5t-44 26t-44.5 13t-38.5 3q-26 0 -52 -6t-55.5 -20.5t-48 -48t-18.5 -80.5v-645z" />
<glyph unicode="&#xf6;" d="M127 406v649q0 45 11 95t42.5 108.5t78.5 103.5t127 75.5t181 30.5q96 0 174 -30.5t126 -76t80.5 -103.5t45.5 -109t13 -96v-650q0 -46 -12 -97.5t-43.5 -110.5t-79 -105t-127.5 -77t-179 -31q-98 0 -177 31t-126.5 78t-79 106t-43.5 111t-12 98zM221 1597v289h258v-289 h-258zM393 406q0 -48 18.5 -82.5t48 -50.5t55.5 -22.5t52 -6.5q18 0 38 3.5t45 14.5t44 28t32 47t13 69v645q0 38 -13 67.5t-32 45.5t-44 26t-44.5 13t-38.5 3q-26 0 -52 -6t-55.5 -20.5t-48 -48t-18.5 -80.5v-645zM651 1597v289h258v-289h-258z" />
<glyph unicode="&#xf7;" horiz-adv-x="1077" d="M141 360v177h795v-177h-795zM395 0v289h289v-289h-289zM395 596v289h289v-289h-289z" />
<glyph unicode="&#xf8;" d="M127 406v651q0 45 11.5 95t42.5 107.5t78.5 103t127.5 75.5t180 30q92 0 168 -28l41 123h146l-64 -193q75 -65 111.5 -153t36.5 -162v-652q0 -46 -12 -97.5t-43.5 -110.5t-79 -105t-127.5 -77t-179 -31q-82 0 -159 24l-35 -104h-150l58 174q-78 64 -115 157t-37 173z M393 408l260 780q-41 16 -84 16q-27 0 -52.5 -5.5t-56 -20t-49 -47.5t-18.5 -80v-643zM492 258q35 -12 77 -12q25 0 50 6t54 21t47.5 48.5t18.5 81.5v601z" />
<glyph unicode="&#xf9;" d="M127 406v1052h266v-1052q0 -48 18.5 -82.5t48 -50.5t55.5 -22.5t52 -6.5q25 0 51 6.5t55 22.5t47.5 50.5t18.5 82.5v1052h267v-1055q0 -49 -11.5 -100.5t-42.5 -110.5t-78 -104.5t-126.5 -75.5t-180.5 -30t-181 30.5t-127.5 76t-78.5 105t-42 111.5t-11 101zM274 1989 h269l188 -392h-219z" />
<glyph unicode="&#xfa;" d="M127 406v1052h266v-1052q0 -48 18.5 -82.5t48 -50.5t55.5 -22.5t52 -6.5q25 0 51 6.5t55 22.5t47.5 50.5t18.5 82.5v1052h267v-1055q0 -49 -11.5 -100.5t-42.5 -110.5t-78 -104.5t-126.5 -75.5t-180.5 -30t-181 30.5t-127.5 76t-78.5 105t-42 111.5t-11 101zM383 1597 l188 392h269l-238 -392h-219z" />
<glyph unicode="&#xfb;" d="M127 406v1052h266v-1052q0 -48 18.5 -82.5t48 -50.5t55.5 -22.5t52 -6.5q25 0 51 6.5t55 22.5t47.5 50.5t18.5 82.5v1052h267v-1055q0 -49 -11.5 -100.5t-42.5 -110.5t-78 -104.5t-126.5 -75.5t-180.5 -30t-181 30.5t-127.5 76t-78.5 105t-42 111.5t-11 101zM236 1597 l241 351h172l248 -351h-219l-113 136l-114 -136h-215z" />
<glyph unicode="&#xfc;" d="M127 406v1052h266v-1052q0 -48 18.5 -82.5t48 -50.5t55.5 -22.5t52 -6.5q25 0 51 6.5t55 22.5t47.5 50.5t18.5 82.5v1052h267v-1055q0 -49 -11.5 -100.5t-42.5 -110.5t-78 -104.5t-126.5 -75.5t-180.5 -30t-181 30.5t-127.5 76t-78.5 105t-42 111.5t-11 101zM221 1597 v289h258v-289h-258zM651 1597v289h258v-289h-258z" />
<glyph unicode="&#xfd;" horiz-adv-x="1105" d="M37 1458h291l225 -563l227 563h289l-383 -930v-528h-266v532zM346 1597l189 392h268l-238 -392h-219z" />
<glyph unicode="&#xfe;" horiz-adv-x="1177" d="M147 0v1458h265v-293h229q190 0 305 -118t115 -312q0 -197 -114 -315.5t-306 -118.5h-229v-301h-265zM412 563h227q31 0 57 7.5t50.5 25.5t38.5 53.5t14 85.5q0 79 -42.5 123.5t-117.5 44.5h-227v-340z" />
<glyph unicode="&#xff;" horiz-adv-x="1105" d="M37 1458h291l225 -563l227 563h289l-383 -930v-528h-266v532zM211 1597v289h258v-289h-258zM641 1597v289h258v-289h-258z" />
<glyph unicode="&#x152;" horiz-adv-x="1669" d="M127 406v651q0 45 11.5 95t43 107.5t78.5 103t126.5 75.5t178.5 30q101 0 172 -26v16h846v-264h-579v-295h536v-264h-536v-371h579v-264h-846v14q-78 -32 -174 -32t-174 31t-125.5 78t-79.5 106t-44.5 111t-12.5 98zM393 403q0 -48 18.5 -81.5t48 -48.5t54.5 -21t51 -6 q25 0 50.5 5.5t54.5 19.5t47.5 44.5t19.5 73.5v662q0 47 -18 80t-47.5 47.5t-54.5 20t-52 5.5q-26 0 -51 -5.5t-54.5 -20t-48 -47.5t-18.5 -80v-648z" />
<glyph unicode="&#x153;" horiz-adv-x="1669" d="M127 406v651q0 45 11.5 95t43 107.5t78.5 103t126.5 75.5t178.5 30q101 0 172 -26v16h846v-264h-579v-295h536v-264h-536v-371h579v-264h-846v14q-78 -32 -174 -32t-174 31t-125.5 78t-79.5 106t-44.5 111t-12.5 98zM393 403q0 -48 18.5 -81.5t48 -48.5t54.5 -21t51 -6 q25 0 50.5 5.5t54.5 19.5t47.5 44.5t19.5 73.5v662q0 47 -18 80t-47.5 47.5t-54.5 20t-52 5.5q-26 0 -51 -5.5t-54.5 -20t-48 -47.5t-18.5 -80v-648z" />
<glyph unicode="&#x178;" horiz-adv-x="1105" d="M37 1458h291l225 -563l227 563h289l-383 -930v-528h-266v532zM211 1597v289h258v-289h-258zM641 1597v289h258v-289h-258z" />
<glyph unicode="&#x2c6;" horiz-adv-x="1015" d="M174 1208l242 351h172l248 -351h-220l-112 135l-115 -135h-215z" />
<glyph unicode="&#x2dc;" horiz-adv-x="1028" d="M150 1341q82 88 139.5 118t107.5 30q45 0 125.5 -40t106.5 -40q44 0 110 74l142 -142q-82 -86 -138.5 -115.5t-111.5 -29.5q-46 0 -125.5 40t-106.5 40q-25 0 -46.5 -16.5t-59.5 -57.5z" />
<glyph unicode="&#x2000;" horiz-adv-x="996" />
<glyph unicode="&#x2001;" horiz-adv-x="1993" />
<glyph unicode="&#x2002;" horiz-adv-x="996" />
<glyph unicode="&#x2003;" horiz-adv-x="1993" />
<glyph unicode="&#x2004;" horiz-adv-x="664" />
<glyph unicode="&#x2005;" horiz-adv-x="498" />
<glyph unicode="&#x2006;" horiz-adv-x="332" />
<glyph unicode="&#x2007;" horiz-adv-x="332" />
<glyph unicode="&#x2008;" horiz-adv-x="249" />
<glyph unicode="&#x2009;" horiz-adv-x="398" />
<glyph unicode="&#x200a;" horiz-adv-x="110" />
<glyph unicode="&#x2010;" horiz-adv-x="937" d="M147 465v217h644v-217h-644z" />
<glyph unicode="&#x2011;" horiz-adv-x="937" d="M147 465v217h644v-217h-644z" />
<glyph unicode="&#x2012;" horiz-adv-x="937" d="M147 465v217h644v-217h-644z" />
<glyph unicode="&#x2013;" horiz-adv-x="1173" d="M147 465v217h879v-217h-879z" />
<glyph unicode="&#x2014;" horiz-adv-x="1636" d="M147 465v217h1342v-217h-1342z" />
<glyph unicode="&#x2018;" horiz-adv-x="559" d="M61 1075l226 467h223l-186 -467h-263z" />
<glyph unicode="&#x2019;" horiz-adv-x="557" d="M49 1075l184 467h261l-226 -467h-219z" />
<glyph unicode="&#x201a;" horiz-adv-x="532" d="M49 -227l184 467h261l-226 -467h-219z" />
<glyph unicode="&#x201c;" horiz-adv-x="958" d="M61 1075l226 467h223l-186 -467h-263zM438 1075l226 467h219l-185 -467h-260z" />
<glyph unicode="&#x201d;" horiz-adv-x="956" d="M49 1075l184 467h261l-226 -467h-219zM422 1075l186 467h262l-225 -467h-223z" />
<glyph unicode="&#x201e;" horiz-adv-x="956" d="M49 -227l184 467h261l-226 -467h-219zM422 -227l186 467h262l-225 -467h-223z" />
<glyph unicode="&#x2022;" horiz-adv-x="792" d="M147 696q0 106 73 179t177 73t176 -73t72 -179q0 -103 -72 -175t-176 -72t-177 72t-73 175z" />
<glyph unicode="&#x2026;" horiz-adv-x="1333" d="M139 0v283h264v-283h-264zM535 0v283h262v-283h-262zM930 0v283h264v-283h-264z" />
<glyph unicode="&#x202f;" horiz-adv-x="398" />
<glyph unicode="&#x2039;" horiz-adv-x="645" d="M45 537l473 477v-301l-172 -176l172 -172v-299z" />
<glyph unicode="&#x203a;" horiz-adv-x="643" d="M127 66v299l174 172l-174 176v301l471 -477z" />
<glyph unicode="&#x205f;" horiz-adv-x="498" />
<glyph unicode="&#x20ac;" horiz-adv-x="1146" d="M78 473v217h153v88h-153v217h153v60q0 38 7 78t23.5 88.5t48.5 91t76.5 78t113.5 56.5t153 21q100 0 178.5 -31t123 -76.5t73 -105t38 -109t9.5 -95.5h-262q0 47 -16.5 79.5t-43.5 47.5t-51 20.5t-49 5.5q-19 0 -37.5 -2.5t-40.5 -12.5t-38.5 -25.5t-27.5 -44t-11 -66.5 v-58h254v-217h-254v-88h254v-217h-254v-67q0 -48 16 -81.5t41.5 -49t49 -21.5t48.5 -6q24 0 48.5 6.5t51.5 22.5t43.5 49.5t16.5 81.5h266q0 -46 -11.5 -97.5t-42.5 -111.5t-77.5 -106.5t-125 -77.5t-177.5 -31t-175.5 31t-120 77t-71.5 106t-37.5 110t-9.5 98v67h-153z" />
<glyph unicode="&#x2122;" horiz-adv-x="1452" d="M147 1241v178h537v-178h-180v-623h-176v623h-181zM729 618v801h213l76 -268l69 268h218v-801h-175v426l-49 -237h-129l-49 237v-426h-174z" />
<glyph unicode="&#x25fc;" horiz-adv-x="1454" d="M0 0v1454h1454v-1454h-1454z" />
<glyph unicode="&#xfb01;" horiz-adv-x="1617" d="M147 0v1458h844v-264h-577v-297h534v-264h-534v-633h-267zM1204 0v1458h266v-1458h-266z" />
<glyph unicode="&#xfb02;" horiz-adv-x="2060" d="M147 0v1458h844v-264h-577v-297h534v-264h-534v-633h-267zM1204 0v1458h266v-1194h576v-264h-842z" />
</font>
</defs>
</svg>
